<svg width="21" height="20" viewBox="0 0 21 20" fill="none" xmlns="http://www.w3.org/2000/svg">
<path d="M16.0069 3.57075C15.3591 3.57075 14.834 4.09588 14.834 4.7431C14.834 5.39089 15.3591 5.91602 16.0069 5.91602C16.6541 5.91602 17.1792 5.39089 17.1792 4.7431C17.1792 4.09588 16.6541 3.57075 16.0069 3.57075Z" fill="#1F1F1F"/>
<path d="M10.7948 13.1549C9.05495 13.1549 7.63955 11.7395 7.63955 10.0002C7.63955 8.26032 9.05495 6.84491 10.7948 6.84491C12.5341 6.84491 13.9495 8.26032 13.9495 10.0002C13.9495 11.7395 12.5341 13.1549 10.7948 13.1549ZM10.7948 5.07451C8.07875 5.07451 5.86914 7.28412 5.86914 10.0002C5.86914 12.7157 8.07875 14.9253 10.7948 14.9253C13.5103 14.9253 15.7199 12.7157 15.7199 10.0002C15.7199 7.28412 13.5103 5.07451 10.7948 5.07451Z" fill="#1F1F1F"/>
<path d="M6.7199 1.88174C4.44473 1.88174 2.59406 3.7324 2.59406 6.00757V13.9924C2.59406 16.2676 4.44473 18.1182 6.7199 18.1182H14.7047C16.9799 18.1182 18.8311 16.2676 18.8311 13.9924V6.00757C18.8311 3.7324 16.9799 1.88174 14.7047 1.88174H6.7199ZM14.7047 20H6.7199C3.40692 20 0.712891 17.3048 0.712891 13.9924V6.00757C0.712891 2.69458 3.40692 0 6.7199 0H14.7047C18.0172 0 20.7123 2.69458 20.7123 6.00757V13.9924C20.7123 17.3048 18.0172 20 14.7047 20Z" fill="#1F1F1F"/>
</svg>
