<svg width="18" height="20" viewBox="0 0 18 20" fill="none" xmlns="http://www.w3.org/2000/svg">
<path d="M16.9614 10.3349C16.8648 9.89583 16.6507 9.5276 16.3197 9.23007C15.9884 8.93255 15.6072 8.75766 15.1755 8.70555C13.8065 8.55677 11.7419 8.48242 8.98126 8.48242C6.22073 8.48242 4.15974 8.55681 2.79808 8.70555C2.35921 8.75766 1.97604 8.93255 1.64853 9.23007C1.32111 9.52771 1.10533 9.89599 1.00111 10.3349C0.807688 11.1982 0.710938 12.5002 0.710938 14.2413C0.710938 16.0121 0.807688 17.3143 1.00111 18.1477C1.09798 18.5865 1.31192 18.955 1.64302 19.2524C1.97412 19.5501 2.35546 19.7212 2.78694 19.7659C4.15614 19.9221 6.22097 20.0002 8.98134 20.0002C11.7415 20.0002 13.8067 19.9221 15.1754 19.7659C15.6071 19.7212 15.9865 19.5501 16.314 19.2524C16.6414 18.9551 16.8572 18.5865 16.9613 18.1477C17.1548 17.2844 17.2516 15.9824 17.2516 14.2413C17.2516 12.4705 17.1547 11.1683 16.9614 10.3349ZM5.43235 11.4624H4.23816V17.8127H3.12215V11.4624H1.9502V10.4133H5.43238V11.4624H5.43235ZM8.44567 17.8127H7.45237V17.2099C7.05059 17.6639 6.67098 17.8908 6.31385 17.8908C5.97164 17.8908 5.75582 17.7531 5.66666 17.4779C5.6072 17.2993 5.5773 17.0276 5.5773 16.6631V12.2993H6.5706V16.3618C6.5706 16.5998 6.57435 16.7301 6.58185 16.7524C6.60418 16.9087 6.68224 16.9868 6.81624 16.9868C7.01709 16.9868 7.22928 16.8305 7.45241 16.518V12.2993H8.44571V17.8127H8.44567ZM12.2404 16.1609C12.2404 16.704 12.2069 17.0762 12.1403 17.2772C12.0135 17.6862 11.7495 17.8908 11.3478 17.8908C10.9906 17.8908 10.6447 17.6862 10.3097 17.2772V17.8128H9.31654V10.4133H10.3097V12.8352C10.6298 12.4336 10.9756 12.2327 11.3478 12.2327C11.7495 12.2327 12.0135 12.4411 12.1403 12.8577C12.2069 13.0511 12.2404 13.4194 12.2404 13.9625V16.1609ZM16.0127 15.2458H14.015V16.2168C14.015 16.7302 14.186 16.9868 14.5283 16.9868C14.7738 16.9868 14.9227 16.853 14.9747 16.5849C14.9894 16.5106 14.997 16.2837 14.997 15.9043H16.0127V16.0493C16.0127 16.414 16.005 16.6296 15.9903 16.6967C15.9681 16.8974 15.8902 17.0983 15.756 17.2993C15.4881 17.6936 15.086 17.8908 14.5504 17.8908C14.0372 17.8908 13.6354 17.701 13.3451 17.3217C13.1294 17.0464 13.0216 16.6149 13.0216 16.027V14.0961C13.0216 13.5083 13.1256 13.0768 13.3338 12.8015C13.6241 12.4221 14.0222 12.2324 14.5283 12.2324C15.0269 12.2324 15.4215 12.4221 15.7113 12.8015C15.9125 13.0768 16.0127 13.5083 16.0127 14.0961V15.2458Z" fill="#1F1F1F"/>
<path d="M10.8127 13.1362C10.6415 13.1362 10.4743 13.2184 10.3105 13.3818V16.7411C10.4743 16.9047 10.6415 16.9865 10.8127 16.9865C11.1028 16.9865 11.2482 16.7374 11.2482 16.2387V13.884C11.2482 13.3854 11.1031 13.1362 10.8127 13.1362Z" fill="#1F1F1F"/>
<path d="M14.5178 13.1362C14.183 13.1362 14.0156 13.3893 14.0156 13.895V14.4084H15.02V13.895C15.02 13.3891 14.8525 13.1362 14.5178 13.1362Z" fill="#1F1F1F"/>
<path d="M4.78525 4.45313V7.47779H5.90126V4.45313L7.2515 0H6.11313L5.35437 2.9353L4.56188 0H3.37891C3.58726 0.625065 3.82908 1.32069 4.1044 2.08711C4.45414 3.11383 4.68095 3.90265 4.78525 4.45313Z" fill="#1F1F1F"/>
<path d="M8.74609 7.55623C9.25951 7.55623 9.65374 7.36649 9.92906 6.98703C10.1375 6.71171 10.2416 6.27268 10.2416 5.67009V3.71687C10.2416 3.12171 10.1372 2.68632 9.92906 2.411C9.65374 2.03154 9.25951 1.8418 8.74609 1.8418C8.24744 1.8418 7.85676 2.03154 7.57413 2.411C7.3659 2.68632 7.26172 3.12171 7.26172 3.71687V5.67005C7.26172 6.26521 7.36578 6.70428 7.57413 6.98699C7.85688 7.36649 8.2474 7.55623 8.74609 7.55623ZM8.26609 3.51595C8.26609 3.00253 8.42609 2.74581 8.74609 2.74581C9.06609 2.74581 9.22593 3.00253 9.22593 3.51595V5.85965C9.22593 6.38065 9.06609 6.64088 8.74609 6.64088C8.42609 6.64088 8.26609 6.38049 8.26609 5.85965V3.51595Z" fill="#1F1F1F"/>
<path d="M11.8162 7.55613C12.1884 7.55613 12.5717 7.32545 12.966 6.86402V7.47787H13.9816V1.90869H12.966V6.16089C12.7427 6.48089 12.5308 6.64073 12.3296 6.64073C12.1955 6.64073 12.1174 6.55891 12.0952 6.39524C12.0877 6.38035 12.084 6.25002 12.084 6.00457V1.90869H11.0684V6.30611C11.0684 6.68549 11.0983 6.96441 11.1577 7.14309C11.2546 7.41841 11.474 7.55613 11.8162 7.55613Z" fill="#1F1F1F"/>
</svg>
