<svg width="2666" height="1085" viewBox="0 0 2666 1085" fill="none" xmlns="http://www.w3.org/2000/svg">
<path d="M1333 1048.52C1343.46 1048.78 1353.9 1048.77 1364.59 1049.01C1486.21 1051.2 1611.89 1053.23 1709.36 973.543C1767.46 926.051 1808.77 853.629 1848.57 783.91C1881.5 726.21 1915.58 666.414 1959.27 619.935C2046.72 527.534 2168.41 495.066 2264.5 477.512C2288.95 472.866 2313.94 469.006 2338 464.966C2422.71 451.193 2509.88 437.151 2589.76 399.958C2593.45 398.427 2597.1 396.618 2600.54 394.834L2608.16 394C2602.58 396.865 2596.77 399.754 2590.73 402.668C2510.63 439.886 2423.04 454.256 2338.53 467.726C2314.44 471.487 2289.48 475.626 2265.03 480.272C2169.19 498.079 2047.92 530.22 1960.89 622.293C1917.36 668.191 1883.29 727.987 1850.57 785.663C1810.59 855.685 1769.3 928.385 1710.75 975.926C1612.65 1055.97 1486.74 1053.96 1364.67 1051.81C1353.98 1051.57 1343.54 1051.59 1333.08 1051.32C1284.91 1050.68 1232.5 1052.74 1181.42 1062.84L1181.12 1060.05C1232.16 1049.68 1284.83 1047.87 1333 1048.52Z" fill="white" fill-opacity="0.2"/>
<path d="M1333 654.515C1322.54 654.78 1312.1 654.765 1301.42 655.005C1179.8 657.2 1054.11 659.233 956.646 579.543C898.541 532.051 857.229 459.629 817.437 389.91C784.497 332.21 750.426 272.414 706.731 225.935C619.279 133.534 497.593 101.066 401.502 83.5122C377.053 78.866 352.065 75.0061 328.004 70.9658C243.297 57.1934 156.123 43.1512 76.246 5.95766C72.5565 4.42711 68.8974 2.61814 65.4625 0.833681L57.8398 0C63.4253 2.86494 69.235 5.75439 75.2689 8.66837C155.37 45.8864 242.962 60.2561 327.475 73.7255C351.567 77.4874 376.524 81.6258 400.973 86.272C496.81 104.079 618.078 136.22 705.111 228.293C748.644 274.191 782.715 333.987 815.43 391.663C855.416 461.685 896.698 534.385 955.251 581.926C1053.36 661.968 1179.27 659.96 1301.33 657.814C1312.02 657.574 1322.46 657.588 1332.92 657.324C1381.09 656.675 1433.5 658.744 1484.58 668.839L1484.89 666.055C1433.84 655.682 1381.17 653.867 1333 654.515Z" fill="white" fill-opacity="0.2"/>
</svg>
