<svg width="14" height="14" viewBox="0 0 14 14" fill="none" xmlns="http://www.w3.org/2000/svg">
<path d="M13.3126 14L9.58223 10.2697C8.53219 11.1601 7.2156 11.6467 5.82333 11.6467C4.26804 11.6467 2.80561 11.041 1.70582 9.94104C0.605715 8.84111 -4.77552e-07 7.37869 -4.77552e-07 5.82326C-4.77552e-07 4.26783 0.605715 2.80541 1.70582 1.70548C2.80561 0.605708 4.2682 0 5.82333 0C7.37894 0 8.84137 0.605708 9.94148 1.70548C12.096 3.8603 12.2042 7.29654 10.2696 9.58212L14 13.3125L13.3126 14ZM9.25393 9.2535C11.1453 7.36216 11.1453 4.28452 9.25393 2.39302C8.33742 1.47684 7.11918 0.972083 5.82316 0.972083C4.52747 0.972083 3.30923 1.47668 2.39305 2.39302C1.47653 3.3092 0.971932 4.52758 0.971932 5.82326C0.971932 7.1191 1.47637 8.33732 2.39305 9.2535C3.30923 10.1698 4.52747 10.6746 5.82316 10.6746C7.11918 10.6746 8.33742 10.17 9.25393 9.2535Z" fill="#1F1F1F"/>
</svg>
