<svg width="14" height="14" viewBox="0 0 14 14" fill="none" xmlns="http://www.w3.org/2000/svg">
<path d="M13.3126 13.8586L9.65294 10.1989L9.58781 10.1338L9.51756 10.1934C8.48556 11.0685 7.19187 11.5467 5.82333 11.5467C4.29456 11.5467 2.85757 10.9515 1.77654 9.87034L1.77653 9.87033C0.695179 8.78915 0.0999994 7.35217 0.0999994 5.82326C0.0999994 4.29435 0.695179 2.85737 1.77653 1.7762L1.70624 1.7059L1.77653 1.77619C2.85756 0.695175 4.29472 0.1 5.82333 0.1C7.35241 0.1 8.78941 0.695168 9.87076 1.77619C9.87077 1.77619 9.87077 1.7762 9.87078 1.7762M13.3126 13.8586L9.87078 1.7762M13.3126 13.8586L13.8586 13.3125M13.3126 13.8586L13.8586 13.3125M9.87078 1.7762C11.9881 3.89387 12.0946 7.27123 10.1933 9.51751L10.1338 9.58776L10.1989 9.65283L13.8586 13.3125M9.87078 1.7762L13.8586 13.3125M9.32463 2.32229L9.32465 2.32231C11.2551 4.25286 11.2551 7.39382 9.32464 9.32421C8.38938 10.2595 7.1457 10.7746 5.82316 10.7746C4.50094 10.7746 3.25727 10.2593 2.32233 9.32421C1.38689 8.38926 0.871932 7.1456 0.871932 5.82326C0.871932 4.50107 1.38706 3.25725 2.32233 2.32231C3.25727 1.38721 4.50095 0.872083 5.82316 0.872083C7.14571 0.872083 8.38937 1.38738 9.32463 2.32229Z" fill="white" stroke="white" stroke-width="0.2"/>
</svg>
