<svg width="179" height="35" viewBox="0 0 179 35" fill="none" xmlns="http://www.w3.org/2000/svg">
<rect x="106" y="17.4141" width="4" height="4" transform="rotate(-45 106 17.4141)" fill="#1F1F1F"/>
<rect x="121" y="17.4141" width="4" height="4" transform="rotate(-45 121 17.4141)" fill="#1F1F1F"/>
<path d="M155.354 17.3536C155.549 17.1583 155.549 16.8417 155.354 16.6464L152.172 13.4645C151.976 13.2692 151.66 13.2692 151.464 13.4645C151.269 13.6597 151.269 13.9763 151.464 14.1716L154.293 17L151.464 19.8284C151.269 20.0237 151.269 20.3403 151.464 20.5355C151.66 20.7308 151.976 20.7308 152.172 20.5355L155.354 17.3536ZM134 17.5H155V16.5H134V17.5Z" fill="#1F1F1F"/>
</svg>
