<svg width="37" height="38" viewBox="0 0 37 38" fill="none" xmlns="http://www.w3.org/2000/svg">
<mask id="path-1-inside-1_1868_4205" fill="white">
<path d="M36.2773 2.96941H33.0977V2.22656C33.0977 0.998833 32.1251 0 30.9297 0C29.7343 0 28.7617 0.998833 28.7617 2.22656V2.96941H20.668V2.22656C20.668 0.998833 19.6954 0 18.5 0C17.3046 0 16.332 0.998833 16.332 2.22656V2.96941H8.23828V2.22656C8.23828 0.998833 7.26573 0 6.07031 0C4.87489 0 3.90234 0.998833 3.90234 2.22656V2.96941H0.722656C0.323533 2.96941 0 3.30168 0 3.71159V37.2577C0 37.6676 0.323533 37.9999 0.722656 37.9999H15.248C15.6472 37.9999 15.9707 37.6676 15.9707 37.2577C15.9707 36.8478 15.6472 36.5155 15.248 36.5155H10.334V29.0937H17.7773V33.8684C17.7773 34.2783 18.1009 34.6105 18.5 34.6105C18.8991 34.6105 19.2227 34.2783 19.2227 33.8684V29.0937H26.666V36.5155H21.752C21.3528 36.5155 21.0293 36.8478 21.0293 37.2577C21.0293 37.6676 21.3528 37.9999 21.752 37.9999H36.2773C36.6765 37.9999 37 37.6676 37 37.2577V3.71159C37 3.30168 36.6765 2.96941 36.2773 2.96941ZM1.44531 20.1874H8.88867V27.6093H1.44531V20.1874ZM1.44531 18.7031V11.3215H8.88867V18.7031H1.44531ZM10.334 11.3215H17.7773V18.7031H10.334V11.3215ZM19.2227 11.3215H26.666V18.7031H19.2227V11.3215ZM28.1113 11.3215H35.5547V18.7031H28.1113V11.3215ZM35.5547 20.1874V27.6093H28.1113V20.1874H35.5547ZM30.207 2.22656C30.207 1.81731 30.5312 1.48437 30.9297 1.48437C31.3282 1.48437 31.6523 1.81731 31.6523 2.22656V5.1953C31.6523 5.60454 31.3282 5.93748 30.9297 5.93748C30.5312 5.93748 30.207 5.60454 30.207 5.1953V2.22656ZM17.7773 2.22656C17.7773 1.81731 18.1015 1.48437 18.5 1.48437C18.8985 1.48437 19.2227 1.81731 19.2227 2.22656V5.1953C19.2227 5.60454 18.8985 5.93748 18.5 5.93748C18.1015 5.93748 17.7773 5.60454 17.7773 5.1953V2.22656ZM5.34766 2.22656C5.34766 1.81731 5.67184 1.48437 6.07031 1.48437C6.46879 1.48437 6.79297 1.81731 6.79297 2.22656V5.1953C6.79297 5.60454 6.46879 5.93748 6.07031 5.93748C5.67184 5.93748 5.34766 5.60454 5.34766 5.1953V2.22656ZM3.90234 4.45378V5.1953C3.90234 6.42302 4.87489 7.42185 6.07031 7.42185C7.26573 7.42185 8.23828 6.42302 8.23828 5.1953V4.45378H16.332V5.1953C16.332 6.42302 17.3046 7.42185 18.5 7.42185C19.6954 7.42185 20.668 6.42302 20.668 5.1953V4.45378H28.7617V5.1953C28.7617 6.42302 29.7343 7.42185 30.9297 7.42185C32.1251 7.42185 33.0977 6.42302 33.0977 5.1953V4.45378H35.5547V9.83714H1.44531V4.45378H3.90234ZM8.88867 36.5155H1.44531V29.0937H8.88867V36.5155ZM10.334 27.6093V20.1874H17.7773V27.6093H10.334ZM19.2227 27.6093V20.1874H26.666V27.6093H19.2227ZM28.1113 36.5155V29.0937H35.5547V36.5155H28.1113Z"/>
</mask>
<path d="M36.2773 2.96941H33.0977V2.22656C33.0977 0.998833 32.1251 0 30.9297 0C29.7343 0 28.7617 0.998833 28.7617 2.22656V2.96941H20.668V2.22656C20.668 0.998833 19.6954 0 18.5 0C17.3046 0 16.332 0.998833 16.332 2.22656V2.96941H8.23828V2.22656C8.23828 0.998833 7.26573 0 6.07031 0C4.87489 0 3.90234 0.998833 3.90234 2.22656V2.96941H0.722656C0.323533 2.96941 0 3.30168 0 3.71159V37.2577C0 37.6676 0.323533 37.9999 0.722656 37.9999H15.248C15.6472 37.9999 15.9707 37.6676 15.9707 37.2577C15.9707 36.8478 15.6472 36.5155 15.248 36.5155H10.334V29.0937H17.7773V33.8684C17.7773 34.2783 18.1009 34.6105 18.5 34.6105C18.8991 34.6105 19.2227 34.2783 19.2227 33.8684V29.0937H26.666V36.5155H21.752C21.3528 36.5155 21.0293 36.8478 21.0293 37.2577C21.0293 37.6676 21.3528 37.9999 21.752 37.9999H36.2773C36.6765 37.9999 37 37.6676 37 37.2577V3.71159C37 3.30168 36.6765 2.96941 36.2773 2.96941ZM1.44531 20.1874H8.88867V27.6093H1.44531V20.1874ZM1.44531 18.7031V11.3215H8.88867V18.7031H1.44531ZM10.334 11.3215H17.7773V18.7031H10.334V11.3215ZM19.2227 11.3215H26.666V18.7031H19.2227V11.3215ZM28.1113 11.3215H35.5547V18.7031H28.1113V11.3215ZM35.5547 20.1874V27.6093H28.1113V20.1874H35.5547ZM30.207 2.22656C30.207 1.81731 30.5312 1.48437 30.9297 1.48437C31.3282 1.48437 31.6523 1.81731 31.6523 2.22656V5.1953C31.6523 5.60454 31.3282 5.93748 30.9297 5.93748C30.5312 5.93748 30.207 5.60454 30.207 5.1953V2.22656ZM17.7773 2.22656C17.7773 1.81731 18.1015 1.48437 18.5 1.48437C18.8985 1.48437 19.2227 1.81731 19.2227 2.22656V5.1953C19.2227 5.60454 18.8985 5.93748 18.5 5.93748C18.1015 5.93748 17.7773 5.60454 17.7773 5.1953V2.22656ZM5.34766 2.22656C5.34766 1.81731 5.67184 1.48437 6.07031 1.48437C6.46879 1.48437 6.79297 1.81731 6.79297 2.22656V5.1953C6.79297 5.60454 6.46879 5.93748 6.07031 5.93748C5.67184 5.93748 5.34766 5.60454 5.34766 5.1953V2.22656ZM3.90234 4.45378V5.1953C3.90234 6.42302 4.87489 7.42185 6.07031 7.42185C7.26573 7.42185 8.23828 6.42302 8.23828 5.1953V4.45378H16.332V5.1953C16.332 6.42302 17.3046 7.42185 18.5 7.42185C19.6954 7.42185 20.668 6.42302 20.668 5.1953V4.45378H28.7617V5.1953C28.7617 6.42302 29.7343 7.42185 30.9297 7.42185C32.1251 7.42185 33.0977 6.42302 33.0977 5.1953V4.45378H35.5547V9.83714H1.44531V4.45378H3.90234ZM8.88867 36.5155H1.44531V29.0937H8.88867V36.5155ZM10.334 27.6093V20.1874H17.7773V27.6093H10.334ZM19.2227 27.6093V20.1874H26.666V27.6093H19.2227ZM28.1113 36.5155V29.0937H35.5547V36.5155H28.1113Z" fill="white" stroke="#332E4C" stroke-width="0.4" mask="url(#path-1-inside-1_1868_4205)"/>
<path d="M18.0607 36.8028C18.1766 36.6838 18.3374 36.6156 18.5 36.6156C18.6626 36.6156 18.8234 36.6838 18.9393 36.8028C19.0553 36.922 19.1227 37.0883 19.1227 37.2578C19.1227 37.4273 19.0553 37.5936 18.9393 37.7128C18.8234 37.8318 18.6626 37.9 18.5 37.9C18.3374 37.9 18.1766 37.8318 18.0607 37.7128C17.9447 37.5936 17.8773 37.4273 17.8773 37.2578C17.8773 37.0883 17.9447 36.922 18.0607 36.8028Z" fill="white" stroke="#332E4C" stroke-width="0.2"/>
<path d="M4.89671 14.8623L4.82506 14.7887L4.40412 14.3563C4.40412 14.3563 4.40412 14.3563 4.40411 14.3563C4.16118 14.1068 3.76838 14.1068 3.52536 14.3563L4.89671 14.8623ZM4.89671 14.8623L4.96836 14.7887M4.89671 14.8623L4.96836 14.7887M4.96836 14.7887L5.92977 13.8013C6.17279 13.5518 6.56561 13.5518 6.80854 13.8013C7.05293 14.0523 7.05293 14.4603 6.80842 14.7113L6.8084 14.7114L5.33598 16.2236L5.33597 16.2236M4.96836 14.7887L5.33597 16.2236M5.33597 16.2236C5.21422 16.3487 5.05529 16.4107 4.89664 16.4107C4.73801 16.4107 4.57913 16.3487 4.4573 16.2236L3.52537 15.2665C3.52537 15.2664 3.52536 15.2664 3.52536 15.2664M5.33597 16.2236L3.52536 15.2664M3.52536 15.2664C3.28096 15.0154 3.28097 14.6073 3.52535 14.3563L3.52536 15.2664Z" fill="white" stroke="#332E4C" stroke-width="0.2"/>
<path d="M22.6741 14.8623L22.6024 14.7887L22.1815 14.3563C22.1815 14.3563 22.1815 14.3563 22.1815 14.3563C21.9385 14.1068 21.5457 14.1068 21.3027 14.3563L22.6741 14.8623ZM22.6741 14.8623L22.7457 14.7887M22.6741 14.8623L22.7457 14.7887M22.7457 14.7887L23.7071 13.8013C23.9501 13.5518 24.343 13.5518 24.5859 13.8013C24.8303 14.0523 24.8303 14.4603 24.5858 14.7113L24.5857 14.7114L23.1133 16.2236L23.1133 16.2236M22.7457 14.7887L23.1133 16.2236M23.1133 16.2236C22.9916 16.3487 22.8326 16.4107 22.674 16.4107C22.5154 16.4107 22.3565 16.3487 22.2346 16.2236L21.3027 15.2665C21.3027 15.2664 21.3027 15.2664 21.3027 15.2664M23.1133 16.2236L21.3027 15.2664M21.3027 15.2664C21.0583 15.0154 21.0583 14.6073 21.3027 14.3563L21.3027 15.2664Z" fill="white" stroke="#332E4C" stroke-width="0.2"/>
<path d="M13.7137 23.6544L13.7854 23.728L13.857 23.6544L14.8184 22.667C15.0615 22.4175 15.4543 22.4175 15.6972 22.667C15.9416 22.918 15.9416 23.3261 15.6971 23.5771L15.6971 23.5771L14.2247 25.0893C14.1029 25.2143 13.9439 25.2764 13.7853 25.2764C13.6267 25.2764 13.4678 25.2144 13.346 25.0893L12.414 24.1322C12.1696 23.8812 12.1696 23.4731 12.414 23.2221C12.657 22.9726 13.0498 22.9726 13.2927 23.2221L13.2927 23.2221L13.7137 23.6544Z" fill="white" stroke="#332E4C" stroke-width="0.2"/>
<path d="M31.491 23.6544L31.5627 23.728L31.6343 23.6544L32.5957 22.667C32.5957 22.667 32.5957 22.667 32.5957 22.667C32.8387 22.4175 33.2315 22.4175 33.4745 22.667C33.7189 22.9181 33.7189 23.3262 33.4745 23.5772L32.0021 25.0894C31.8803 25.2144 31.7214 25.2765 31.5627 25.2765C31.4041 25.2765 31.2452 25.2145 31.1234 25.0894L30.1914 24.1322C29.947 23.8812 29.9469 23.4731 30.1913 23.2221C30.4342 22.9726 30.8271 22.9726 31.07 23.2221L31.07 23.2221L31.491 23.6544Z" fill="white" stroke="#332E4C" stroke-width="0.2"/>
<path d="M5.33606 34.0357L5.33605 34.0357C5.2143 34.1608 5.05537 34.2228 4.89672 34.2228C4.73809 34.2228 4.57921 34.1608 4.45738 34.0357L3.52544 33.0785C3.28106 32.8275 3.28104 32.4194 3.52529 32.1683C3.76831 31.9188 4.16112 31.9188 4.40405 32.1683L4.825 32.6007L4.89664 32.6743L4.9683 32.6007L5.92971 31.6133C6.17272 31.3638 6.56553 31.3638 6.80847 31.6133C7.05288 31.8644 7.05286 32.2725 6.80848 32.5234L5.33606 34.0357Z" fill="white" stroke="#332E4C" stroke-width="0.2"/>
<path d="M22.2347 34.0356L22.2347 34.0357C22.3566 34.1608 22.5154 34.2228 22.6741 34.2228C22.8327 34.2228 22.9916 34.1608 23.1134 34.0357L23.1134 34.0357L24.5858 32.5234C24.8302 32.2725 24.8302 31.8644 24.5858 31.6133C24.3429 31.3638 23.9501 31.3638 23.7071 31.6133C23.7071 31.6133 23.7071 31.6133 23.7071 31.6133L22.7456 32.6007L22.674 32.6743L22.6023 32.6007L22.1814 32.1683C22.1814 32.1683 22.1814 32.1683 22.1814 32.1683C21.9385 31.9188 21.5457 31.9188 21.3026 32.1683L22.2347 34.0356ZM22.2347 34.0356L21.3027 33.0785C21.3026 33.0785 21.3026 33.0785 21.3026 33.0785M22.2347 34.0356L21.3026 33.0785M21.3026 33.0785C21.0582 32.8274 21.0583 32.4193 21.3026 32.1683L21.3026 33.0785Z" fill="white" stroke="#332E4C" stroke-width="0.2"/>
</svg>
