<svg width="11" height="11" viewBox="0 0 11 11" fill="none" xmlns="http://www.w3.org/2000/svg">
<circle cx="5.0338" cy="5.0338" r="5.0338" fill="#1F1F1F"/>
<path d="M7.72116 2.48665C7.71297 2.41282 7.65469 2.35451 7.58082 2.34632C6.32392 2.20673 5.25248 2.70949 4.3785 3.60909C4.12839 3.86655 3.91144 4.13907 3.72626 4.40207C3.41287 4.38933 3.06538 4.53111 2.81903 4.77745L2.36976 5.22669C2.31893 5.27752 2.30859 5.35618 2.34453 5.41843C2.38047 5.48067 2.45372 5.51099 2.52321 5.49242C2.62744 5.46442 2.79682 5.43187 2.95954 5.4243C3.01902 5.42153 3.06845 5.4224 3.10952 5.42554C3.01037 5.61621 2.93439 5.77594 2.9092 5.81593C2.86974 5.87871 2.87888 5.9604 2.93133 6.01284L3.19129 6.27278C2.81295 6.78874 2.80671 7.05298 2.80803 7.09041C2.8108 7.1697 2.87264 7.24398 2.97505 7.24398C3.06373 7.24398 3.31806 7.20634 3.78107 6.86252L4.05451 7.13595C4.10733 7.18876 4.18985 7.19761 4.25272 7.15725C4.29549 7.12974 4.44584 7.05695 4.62613 6.96274C4.62911 7.09711 4.61087 7.29444 4.57129 7.5619C4.54879 7.71361 4.73322 7.80493 4.84072 7.69748L5.28999 7.24824C5.52166 7.01659 5.656 6.67252 5.64608 6.34975C5.92316 6.15615 6.21141 5.92777 6.48055 5.66385C7.37165 4.79006 7.85898 3.7268 7.72116 2.48665ZM7.41732 2.6501C7.44267 2.99255 7.41562 3.3245 7.33683 3.64574C7.14115 3.58411 6.94985 3.46305 6.77708 3.29034C6.60369 3.11692 6.48237 2.92485 6.42099 2.72848C6.74213 2.65084 7.0743 2.62454 7.41732 2.6501ZM2.93882 5.10691L3.04363 5.00207C3.1704 4.87534 3.33527 4.78406 3.49923 4.74304C3.41357 4.87898 3.33721 5.00881 3.26988 5.12863C3.16585 5.10567 3.0502 5.10141 2.93882 5.10691ZM3.23939 5.87168C3.27377 5.80385 3.31533 5.71882 3.39165 5.57464L3.60073 5.78375C3.52293 5.86722 3.4527 5.9465 3.38941 6.02165L3.23939 5.87168ZM4.01613 5.81093C4.13186 5.69525 4.24283 5.67411 4.38069 5.67113C4.37767 5.80547 4.35612 5.9202 4.24077 6.03555C3.74765 6.52863 3.40964 6.74883 3.2075 6.8471C3.30723 6.64109 3.52802 6.29901 4.01613 5.81093ZM4.19477 6.827L4.03098 6.66317C4.10576 6.59964 4.1848 6.52921 4.26819 6.45112L4.49076 6.67368C4.34442 6.7518 4.28337 6.78121 4.19477 6.827ZM5.06532 7.02362L4.93817 7.1508C4.94847 6.99673 4.94491 6.88448 4.93035 6.79788C5.04716 6.73212 5.17401 6.65755 5.30695 6.57413C5.26906 6.74204 5.1839 6.90508 5.06532 7.02362ZM4.77992 6.51362L4.49514 6.22882C4.70588 5.99696 4.69802 5.77354 4.69802 5.51252C4.69802 5.4248 4.62692 5.3537 4.53919 5.3537C4.29532 5.3537 4.06063 5.34063 3.82284 5.55661L3.55089 5.28467C4.2935 3.98257 5.15189 3.1582 6.11632 2.81872C6.19268 3.06576 6.34129 3.30378 6.55248 3.51496C6.76268 3.72519 6.9996 3.87342 7.24558 3.95006C6.9041 4.90913 6.07988 5.76692 4.77992 6.51362Z" fill="white"/>
</svg>
