<svg width="55" height="55" viewBox="0 0 55 55" fill="none" xmlns="http://www.w3.org/2000/svg">
<circle cx="27.5" cy="27.5" r="27.5" fill="white"/>
<circle cx="27.5" cy="27.5" r="21" stroke="#D9D9D1" stroke-dasharray="3 3"/>
<path d="M38.2386 16H15.7614V30.2743H18.538V32.9796C18.538 36.1728 20.1397 39.4237 20.2079 39.5605L20.4269 40H33.5731L33.7921 39.5605C33.8603 39.4237 35.462 36.1728 35.462 32.9796V30.2743H38.2386V16ZM36.652 20.2122C35.3524 19.9107 34.3279 18.8861 34.0264 17.5866H36.652V20.2122ZM32.4101 28.6876H23.1921V26.711C23.1921 25.4278 22.1482 24.3839 20.865 24.3839C20.2015 24.3839 19.6024 24.6635 19.1781 25.1105C18.617 24.7736 17.9956 24.549 17.348 24.4472V21.8285C19.5245 21.4869 21.2483 19.7631 21.5899 17.5866H32.4101C32.7517 19.7631 34.4754 21.4869 36.652 21.8285V24.4458C34.4755 24.7873 32.7517 26.5112 32.4101 28.6876ZM19.9736 17.5866C19.6721 18.8861 18.6475 19.9107 17.348 20.2122V17.5866H19.9736ZM17.348 28.6876V26.0612C17.7744 26.16 18.179 26.3385 18.5413 26.5874C18.5391 26.6284 18.538 26.6695 18.538 26.711V28.6876H17.348ZM21.4277 38.4134C21.0183 37.4696 20.1246 35.1597 20.1246 32.9796V26.711C20.1246 26.3027 20.4567 25.9705 20.865 25.9705C21.2733 25.9705 21.6054 26.3027 21.6054 26.711V33.9764H22.3988C25.013 33.9764 27.1856 35.9045 27.5689 38.4134H21.4277ZM33.8754 32.9796C33.8754 35.1598 32.9816 37.47 32.5722 38.4134H29.1698C28.8059 35.2869 26.3185 32.7995 23.1921 32.4357V30.2743H33.8754V32.9796ZM34.0264 28.6876C34.3279 27.3881 35.3524 26.3636 36.652 26.062V28.6876H34.0264Z" fill="#D9D9D1" stroke="white" stroke-width="0.8"/>
<path d="M27 19.5674C25.0315 19.5674 23.4301 21.1688 23.4301 23.1373C23.4301 25.1058 25.0315 26.7072 27 26.7072C28.9684 26.7072 30.5699 25.1058 30.5699 23.1373C30.5699 21.1688 28.9684 19.5674 27 19.5674ZM27 25.1206C25.9064 25.1206 25.0167 24.2309 25.0167 23.1373C25.0167 22.0437 25.9064 21.154 27 21.154C28.0936 21.154 28.9833 22.0437 28.9833 23.1373C28.9833 24.2309 28.0936 25.1206 27 25.1206Z" fill="#D9D9D1" stroke="white" stroke-width="0.8"/>
</svg>
