<svg width="46" height="35" viewBox="0 0 46 35" fill="none" xmlns="http://www.w3.org/2000/svg">
<path d="M33.2054 10.5718L23.2254 29.7971L13.2454 10.5718H33.2054Z" stroke="white" stroke-miterlimit="10" stroke-linecap="round" stroke-linejoin="round"/>
<path d="M23.2254 29.7968C30.056 29.7968 35.5933 24.2595 35.5933 17.4289C35.5933 10.5983 30.056 5.06104 23.2254 5.06104C16.3948 5.06104 10.8575 10.5983 10.8575 17.4289C10.8575 24.2595 16.3948 29.7968 23.2254 29.7968Z" stroke="white" stroke-miterlimit="10" stroke-linecap="round" stroke-linejoin="round"/>
<path d="M33.5728 28.6953C33.7564 28.5117 33.8789 28.3892 34.0626 28.2055C37.0627 25.2054 38.5322 21.2869 38.5322 17.3683C38.5322 13.4498 37.0627 9.53126 34.0626 6.53113C33.9401 6.40867 33.7564 6.22499 33.5728 6.10254C40.2465 6.10254 41.4711 11.7967 42.3895 13.6335C43.3079 15.4703 45.4508 17.3683 45.4508 17.3683C45.4508 17.3683 43.3079 19.2664 42.3895 21.1032C41.5323 23.0012 40.2465 28.6953 33.5728 28.6953Z" stroke="white" stroke-miterlimit="10" stroke-linecap="round" stroke-linejoin="round"/>
<path d="M12.8781 6.16406C12.6944 6.34774 12.5719 6.4702 12.3882 6.65388C9.38812 9.65401 7.91866 13.5725 7.91866 17.4911C7.91866 21.4096 9.38812 25.3282 12.3882 28.3283C12.5107 28.4507 12.6944 28.6344 12.8781 28.7569C6.2043 28.7569 4.97976 23.0628 4.06136 21.2259C3.14295 19.3891 1 17.4911 1 17.4911C1 17.4911 3.14295 15.593 4.06136 13.7562C4.97976 11.8582 6.2043 6.16406 12.8781 6.16406Z" stroke="white" stroke-miterlimit="10" stroke-linecap="round" stroke-linejoin="round"/>
<path d="M38.2818 19.8178C39.5961 11.5015 33.9199 3.69433 25.6036 2.37998C17.2873 1.06564 9.48006 6.74186 8.16572 15.0582C6.85137 23.3745 12.5276 31.1817 20.8439 32.496C29.1602 33.8104 36.9674 28.1342 38.2818 19.8178Z" stroke="white" stroke-miterlimit="10" stroke-linecap="round" stroke-linejoin="round"/>
</svg>
