<svg width="18" height="18" viewBox="0 0 18 18" fill="none" xmlns="http://www.w3.org/2000/svg">
<path d="M8.93939 0C4.00861 0 0 4.02826 0 8.98322C0 13.9382 4.00861 17.9664 8.93939 17.9664C13.8702 17.9664 17.8788 13.9382 17.8788 8.98322C17.8788 4.02826 13.8702 0 8.93939 0ZM8.93939 16.3589C4.89314 16.3589 1.59968 13.0493 1.59968 8.98322C1.59968 4.91713 4.89314 1.60752 8.93939 1.60752C12.9856 1.60752 16.2791 4.91713 16.2791 8.98322C16.2791 13.0493 12.9856 16.3589 8.93939 16.3589Z" fill="#1F1F1F"/>
<path d="M12.6092 8.18879H9.72978V4.65222C9.72978 4.21724 9.37221 3.85791 8.93936 3.85791C8.5065 3.85791 8.14893 4.21724 8.14893 4.65222V8.9831C8.14893 9.41807 8.5065 9.7774 8.93936 9.7774H12.6092C13.0421 9.7774 13.3996 9.41807 13.3996 8.9831C13.3996 8.54812 13.0609 8.18879 12.6092 8.18879Z" fill="#1F1F1F"/>
</svg>
