<svg width="35" height="4" viewBox="0 0 35 4" fill="none" xmlns="http://www.w3.org/2000/svg">
<rect y="2.41406" width="2" height="2" transform="rotate(-45 0 2.41406)" fill="#332E4C"/>
<rect x="5" y="2.41406" width="2" height="2" transform="rotate(-45 5 2.41406)" fill="#332E4C"/>
<path d="M34.1768 2.17678C34.2744 2.07915 34.2744 1.92085 34.1768 1.82322L32.5858 0.232233C32.4882 0.134602 32.3299 0.134602 32.2322 0.232233C32.1346 0.329864 32.1346 0.488155 32.2322 0.585786L33.6464 2L32.2322 3.41421C32.1346 3.51184 32.1346 3.67014 32.2322 3.76777C32.3299 3.8654 32.4882 3.8654 32.5858 3.76777L34.1768 2.17678ZM13 2.25H34V1.75H13V2.25Z" fill="#332E4C"/>
</svg>
