<svg width="44" height="33" viewBox="0 0 44 33" fill="none" xmlns="http://www.w3.org/2000/svg">
<path d="M42.5439 29.1233C41.9165 28.7197 41.3923 28.1209 40.8363 27.4867C39.6532 26.136 38.3122 24.605 35.6483 24.605C32.9676 24.605 31.6254 26.1479 30.4414 27.5087C29.3586 28.7532 28.5034 29.7362 26.7194 29.7362C24.9355 29.7362 24.0797 28.7542 22.9968 27.5091C21.8126 26.1479 20.4702 24.6055 17.7899 24.6055C15.1096 24.6055 13.767 26.1484 12.583 27.5091C11.5002 28.7537 10.6448 29.7367 8.86075 29.7367C7.08655 29.7367 6.23268 28.7578 5.15212 27.5184C4.38564 26.6401 3.59368 25.7324 2.41026 25.1637C2.17489 25.0507 1.9043 25.0359 1.658 25.1224C1.4117 25.209 1.20987 25.3898 1.09691 25.6252C0.983953 25.8606 0.969121 26.1312 1.05568 26.3775C1.14223 26.6238 1.32308 26.8256 1.55845 26.9385C2.37689 27.3314 3.00428 28.0508 3.66848 28.8124C4.85102 30.1683 6.19143 31.7053 8.86085 31.7053C11.5416 31.7053 12.8839 30.1625 14.0683 28.8016C15.151 27.557 16.0063 26.574 17.7902 26.574C19.5741 26.574 20.4295 27.557 21.5122 28.8016C22.6965 30.1629 24.0388 31.7053 26.7191 31.7053C29.3995 31.7053 30.7421 30.1625 31.9261 28.8016C33.0088 27.557 33.8642 26.574 35.6481 26.574C37.4198 26.574 38.2736 27.5493 39.3553 28.7842C39.9762 29.4929 40.6184 30.2262 41.4793 30.7797C41.588 30.8503 41.7096 30.8988 41.8372 30.9224C41.9647 30.9459 42.0956 30.944 42.2224 30.9167C42.3492 30.8895 42.4693 30.8375 42.576 30.7637C42.6826 30.6899 42.7736 30.5957 42.8437 30.4866C42.9138 30.3775 42.9617 30.2557 42.9846 30.128C43.0074 30.0004 43.0049 29.8694 42.977 29.7428C42.9491 29.6161 42.8965 29.4962 42.8221 29.39C42.7478 29.2838 42.6531 29.1933 42.5437 29.1237L42.5439 29.1233Z" fill="white" stroke="#332E4C" stroke-width="0.8"/>
<path d="M42.5439 21.4265C41.9165 21.023 41.3923 20.4241 40.8363 19.7899C39.6532 18.4392 38.3122 16.9082 35.6483 16.9082C32.9676 16.9082 31.6254 18.451 30.4414 19.8119C29.3586 21.0564 28.5034 22.0394 26.7194 22.0394C24.9355 22.0394 24.08 21.0564 22.9972 19.8119C21.813 18.4505 20.4706 16.9082 17.7903 16.9082C15.11 16.9082 13.7674 18.451 12.5834 19.8119C11.5006 21.0564 10.6452 22.0394 8.86114 22.0394C7.08695 22.0394 6.23307 21.0606 5.15251 19.8211C4.38564 18.9433 3.59368 18.0352 2.41026 17.4669C2.17489 17.3539 1.9043 17.3391 1.658 17.4257C1.4117 17.5122 1.20987 17.6931 1.09691 17.9284C0.983953 18.1638 0.969121 18.4344 1.05568 18.6807C1.14223 18.927 1.32308 19.1288 1.55845 19.2418C2.37689 19.6346 3.00428 20.354 3.66848 21.1156C4.85102 22.4715 6.19143 24.0085 8.86085 24.0085C11.5416 24.0085 12.8839 22.4657 14.0683 21.1049C15.151 19.8603 16.0063 18.8773 17.7902 18.8773C19.5741 18.8773 20.4295 19.8603 21.5122 21.1049C22.6965 22.4662 24.0388 24.0085 26.7191 24.0085C29.3995 24.0085 30.7421 22.4657 31.9261 21.1049C33.0088 19.8603 33.8642 18.8773 35.6481 18.8773C37.4198 18.8773 38.2736 19.8526 39.3553 21.0875C39.9762 21.7962 40.6184 22.5295 41.4793 23.083C41.588 23.1537 41.7096 23.2022 41.8372 23.2257C41.9647 23.2492 42.0956 23.2473 42.2224 23.2201C42.3492 23.1928 42.4693 23.1408 42.576 23.067C42.6826 22.9932 42.7736 22.899 42.8437 22.7899C42.9138 22.6808 42.9617 22.559 42.9846 22.4313C43.0074 22.3037 43.0049 22.1728 42.977 22.0461C42.9491 21.9195 42.8965 21.7996 42.8221 21.6933C42.7478 21.5871 42.6531 21.4966 42.5437 21.427L42.5439 21.4265Z" fill="white" stroke="#332E4C" stroke-width="0.8"/>
<path d="M42.5439 13.2156C41.9165 12.812 41.3923 12.2132 40.8363 11.579C39.6532 10.2282 38.3122 8.69727 35.6483 8.69727C32.9676 8.69727 31.6254 10.2401 30.4414 11.6009C29.3586 12.8455 28.5034 13.8285 26.7194 13.8285C24.9355 13.8285 24.08 12.8455 22.9972 11.6009C21.813 10.2396 20.4706 8.69727 17.7903 8.69727C15.11 8.69727 13.7674 10.2401 12.5834 11.6009C11.5006 12.8455 10.6452 13.8285 8.86114 13.8285C7.08695 13.8285 6.23307 12.8496 5.15251 11.6102C4.38564 10.7325 3.59368 9.82428 2.41026 9.25605C2.29372 9.20012 2.1673 9.16769 2.03823 9.16062C1.90915 9.15354 1.77995 9.17196 1.658 9.21482C1.4117 9.30137 1.20987 9.48222 1.09691 9.71759C0.983953 9.95295 0.969121 10.2235 1.05568 10.4698C1.14223 10.7161 1.32308 10.918 1.55845 11.0309C2.37689 11.4238 3.00428 12.1432 3.66848 12.9047C4.85102 14.2607 6.19143 15.7977 8.86085 15.7977C11.5416 15.7977 12.8839 14.2549 14.0683 12.894C15.151 11.6495 16.0063 10.6664 17.7902 10.6664C19.5741 10.6664 20.4295 11.6495 21.5122 12.894C22.6965 14.2554 24.0388 15.7977 26.7191 15.7977C29.3995 15.7977 30.7421 14.2549 31.9261 12.894C33.0088 11.6495 33.8642 10.6664 35.6481 10.6664C37.4198 10.6664 38.2736 11.6418 39.3553 12.8767C39.9762 13.5854 40.6184 14.3187 41.4793 14.8722C41.588 14.9428 41.7096 14.9913 41.8372 15.0148C41.9647 15.0384 42.0956 15.0365 42.2224 15.0092C42.3492 14.982 42.4693 14.93 42.576 14.8562C42.6826 14.7823 42.7736 14.6882 42.8437 14.5791C42.9138 14.47 42.9617 14.3481 42.9846 14.2205C43.0074 14.0928 43.0049 13.9619 42.977 13.8353C42.9491 13.7086 42.8965 13.5887 42.8221 13.4825C42.7478 13.3762 42.6531 13.2857 42.5437 13.2162L42.5439 13.2156Z" fill="white" stroke="#332E4C" stroke-width="0.8"/>
<path d="M1.55795 3.33308C2.3764 3.72591 3.00379 4.44533 3.66799 5.20688C4.85053 6.56285 6.19094 8.09983 8.86035 8.09983C11.5411 8.09983 12.8834 6.55695 14.0678 5.19616C15.1505 3.95161 16.0058 2.96859 17.7897 2.96859C19.5736 2.96859 20.429 3.95161 21.5117 5.19616C22.696 6.55744 24.0383 8.09983 26.7187 8.09983C29.399 8.09983 30.7416 6.55695 31.9256 5.19616C33.0083 3.95161 33.8637 2.96859 35.6476 2.96859C37.4193 2.96859 38.2731 3.94393 39.3548 5.17883C39.9757 5.88752 40.6179 6.62083 41.4788 7.1743C41.5875 7.24497 41.7091 7.29346 41.8367 7.31699C41.9642 7.34051 42.0951 7.3386 42.2219 7.31137C42.3487 7.28414 42.4689 7.23212 42.5755 7.1583C42.6821 7.08449 42.7731 6.99033 42.8432 6.88124C42.9133 6.77215 42.9612 6.65028 42.9841 6.52263C43.007 6.39498 43.0044 6.26407 42.9765 6.13742C42.9486 6.01077 42.896 5.89087 42.8216 5.78463C42.7473 5.67838 42.6526 5.58788 42.5432 5.51831C41.9158 5.11475 41.3916 4.51591 40.8356 3.88173C39.6525 2.53097 38.3115 1 35.6476 1C32.9669 1 31.6247 2.54279 30.4407 3.90367C29.3579 5.14832 28.5027 6.13133 26.7188 6.13133C24.9348 6.13133 24.0794 5.14832 22.9965 3.90367C21.8123 2.54239 20.4699 1 17.7896 1C15.1093 1 13.7667 2.54279 12.5827 3.90367C11.4999 5.14832 10.6445 6.13133 8.86045 6.13133C7.08626 6.13133 6.23238 5.15245 5.15182 3.91303C4.38564 3.03464 3.59368 2.12653 2.41026 1.55819C2.17489 1.44524 1.9043 1.43041 1.658 1.51696C1.4117 1.60351 1.20987 1.78437 1.09691 2.01973C0.983953 2.2551 0.969121 2.52569 1.05568 2.77199C1.14223 3.01829 1.32308 3.22012 1.55845 3.33308H1.55795Z" fill="white" stroke="#332E4C" stroke-width="0.8"/>
</svg>
