<svg width="1097" height="643" viewBox="0 0 1097 643" fill="none" xmlns="http://www.w3.org/2000/svg">
<path d="M151.997 628.515C162.463 628.78 172.897 628.765 183.587 629.005C305.207 631.2 430.893 633.233 528.356 553.543C586.461 506.051 627.773 433.63 667.565 363.91C700.505 306.21 734.576 246.414 778.271 199.935C865.723 107.534 987.409 75.0656 1083.5 57.5122C1107.95 52.866 1132.94 49.0061 1157 44.9658C1241.71 31.1934 1328.88 17.1512 1408.76 -20.0423C1412.45 -21.5729 1416.1 -23.3819 1419.54 -25.1663L1427.16 -26C1421.58 -23.1351 1415.77 -20.2456 1409.73 -17.3316C1329.63 19.8864 1242.04 34.2561 1157.53 47.7255C1133.44 51.4874 1108.48 55.6258 1084.03 60.272C988.192 78.0792 866.924 110.22 779.891 202.293C736.358 248.191 702.287 307.987 669.572 365.663C629.586 435.685 588.304 508.385 529.751 555.926C431.646 635.968 305.736 633.96 183.667 631.814C172.978 631.574 162.543 631.588 152.078 631.324C103.909 630.675 51.4993 632.744 0.421283 642.839L0.116772 640.055C51.1643 629.682 103.828 627.867 151.997 628.515Z" fill="white" fill-opacity="0.2"/>
</svg>
