<svg width="35" height="37" viewBox="0 0 35 37" fill="none" xmlns="http://www.w3.org/2000/svg">
<path d="M32.1326 0.007743C32.6814 -0.0624878 33.1963 0.353439 33.2538 0.914194L34.078 8.84009C34.1406 9.40048 33.7276 9.90265 33.1723 9.95905L32.1326 0.007743ZM32.1326 0.007743L24.1998 0.834866L32.1326 0.007743ZM33.0051 0.939693L33.0051 0.940052L33.8294 8.86595L33.8296 8.86784C33.8765 9.28829 33.5658 9.6678 33.147 9.71031L33.1436 9.7107C33.1158 9.71391 33.0915 9.71524 33.0631 9.71524C32.6711 9.71524 32.3393 9.42095 32.2999 9.02769L32.2998 9.0267L31.7285 3.54069L31.6659 2.94005L31.2856 3.40915L26.2955 9.56436L26.154 9.73895L26.3126 9.89821C29.6877 13.2871 30.0679 18.7309 26.9971 22.5192C25.7197 24.0904 24.0052 25.1807 22.1009 25.6909L21.9942 25.7195L21.9435 25.8176C21.6542 26.3773 21.303 26.9127 20.8959 27.4159C19.0909 29.6431 16.4066 30.922 13.5351 30.922C11.7065 30.922 9.93049 30.36 8.39792 29.3666L8.20924 29.2443L8.06769 29.419L6.1496 31.7865L5.99232 31.9806L6.18636 32.138L9.27684 34.6449C9.27688 34.6449 9.27692 34.6449 9.27696 34.645C9.60472 34.9122 9.65516 35.398 9.38766 35.7261L9.38703 35.7268C9.23415 35.9159 9.0151 36.0107 8.78886 36.0107C8.61839 36.0107 8.44768 35.954 8.30474 35.8411C8.30439 35.8408 8.30404 35.8405 8.30369 35.8402L5.21462 33.3344L5.02028 33.1768L4.86282 33.3713L2.35927 36.4635C2.35899 36.4639 2.35871 36.4642 2.35843 36.4645C2.20224 36.6523 1.98054 36.7494 1.75551 36.7494C1.58817 36.7494 1.4171 36.6926 1.27602 36.5771L1.27484 36.5761C0.944533 36.3089 0.893041 35.8272 1.1615 35.4942C1.16161 35.4941 1.16173 35.4939 1.16184 35.4938L3.66764 32.4037L3.8251 32.2095L3.63091 32.0521L0.535268 29.5419L0.534907 29.5416C0.203893 29.2743 0.154794 28.7931 0.421895 28.4642C0.695932 28.1294 1.17694 28.0845 1.50669 28.3509L4.60215 30.8569L4.79648 31.0142L4.95378 30.8199L6.88206 28.4375L7.02334 28.2629L6.86488 28.1038C3.49062 24.7154 3.10287 19.2754 6.18093 15.4855L6.18106 15.4853C7.45376 13.9157 9.16568 12.8315 11.0678 12.319L11.1748 12.2902L11.2253 12.1916C11.5109 11.6338 11.8598 11.0979 12.2713 10.5916L12.2714 10.5916C14.0834 8.36223 16.7708 7.08323 19.6438 7.08323C21.4678 7.08323 23.2449 7.64871 24.7766 8.64193L24.9652 8.76423L25.1068 8.58962L30.0867 2.44788L30.4667 1.97922L29.8666 2.04177L24.3856 2.61307L24.3828 2.61339C23.9639 2.66181 23.5844 2.35422 23.5405 1.9282L23.5405 1.92767C23.4961 1.50544 23.8048 1.1272 24.2256 1.08353L24.2257 1.08352L32.1586 0.256395L32.1586 0.256463L32.1644 0.25572C32.5695 0.203878 32.9615 0.514396 33.0051 0.939693ZM18.5347 15.2928L18.5345 15.2927C17.1048 14.1337 15.3768 13.5208 13.5439 13.5208C13.2185 13.5208 12.8995 13.5721 12.6004 13.6202C12.5409 13.6298 12.4822 13.6393 12.4244 13.6482L12.2788 13.6705L12.2278 13.8087C11.0858 16.9021 11.9277 20.5266 14.64 22.726L14.6402 22.7261C16.0695 23.8832 17.7978 24.4961 19.6318 24.4961C19.942 24.4961 20.2451 24.4485 20.5262 24.4043C20.6014 24.3925 20.675 24.3809 20.7468 24.3706L20.8931 24.3495L20.9451 24.2111C21.3674 23.0882 21.5577 21.8735 21.4255 20.634C21.2097 18.5252 20.1793 16.628 18.5347 15.2928ZM7.37513 16.455L7.37491 16.4553C4.6209 19.8511 5.14329 24.857 8.54182 27.6145C9.96974 28.7731 11.697 29.3868 13.5308 29.3868C15.9392 29.3868 18.1855 28.3174 19.6974 26.4557L19.7072 26.4437L19.7138 26.4331L20.1376 26.0341L19.5199 26.0256C17.3968 25.9961 15.321 25.2575 13.6682 23.9169C10.8195 21.6038 9.70393 17.9745 10.4073 14.6061L10.5117 14.1061L10.0528 14.3304C9.03307 14.8288 8.11655 15.5434 7.37513 16.455ZM25.8008 21.5568C28.555 18.1596 28.0328 13.1518 24.6413 10.3953L24.641 10.3951C23.212 9.23691 21.4859 8.62393 19.6529 8.62393C17.2461 8.62393 15.0017 9.69285 13.4829 11.5534C13.467 11.5704 13.4558 11.5867 13.4481 11.5993L13.4425 11.6087L13.1992 11.9846L13.6528 11.9896C15.7774 12.013 17.8551 12.7541 19.5129 14.097C21.473 15.6902 22.6979 17.9524 22.9621 20.4692C23.066 21.4621 22.9697 22.4445 22.7687 23.4091L22.664 23.9118L23.1243 23.6842C24.1422 23.1809 25.0592 22.4721 25.8008 21.5568ZM13.44 11.6131C13.4397 11.6136 13.4398 11.6134 13.4402 11.6128L13.44 11.6131Z" fill="white" stroke="#332E4C" stroke-width="0.5"/>
</svg>
