<svg width="55" height="55" viewBox="0 0 55 55" fill="none" xmlns="http://www.w3.org/2000/svg">
<circle cx="27.5" cy="27.5" r="27.5" fill="white"></circle>
<circle cx="27.5" cy="27.5" r="21" stroke="#332E4C" stroke-dasharray="3 3"></circle>
<path d="M40.2113 23.1756L40.1422 23.1981V23.2707V34.6523H40.2422L40.2172 34.7492C41.184 34.9989 41.9 35.8786 41.9 36.9219V37.5078C41.9 39.7142 40.1048 41.5094 37.8984 41.5094H36.7266C36.53 41.5094 36.3528 41.391 36.2776 41.2094C36.2024 41.0278 36.244 40.8188 36.383 40.6798C37.0373 40.0255 37.4125 39.1217 37.4125 38.1992V36.9219C37.4125 35.8786 38.1286 34.9989 39.0953 34.7492L39.1703 34.7298V34.6523V23.6518V23.5142L39.0394 23.5567L35.7581 24.6238L35.6891 24.6463V24.7189V29.3047C35.6891 30.431 34.7591 31.4799 32.992 32.2373C31.3867 32.9253 29.2589 33.3063 27 33.3063C24.7411 33.3063 22.6133 32.9253 21.0081 32.2373C19.2409 31.4799 18.3109 30.431 18.3109 29.3047V24.7189V24.6463L18.2419 24.6238L12.4357 22.7356C12.4356 22.7356 12.4356 22.7356 12.4356 22.7356C12.2355 22.6705 12.1 22.4839 12.1 22.2735C12.1 22.063 12.2355 21.8764 12.4356 21.8113C12.4356 21.8113 12.4356 21.8113 12.4357 21.8113L26.8497 17.1238C26.9474 17.0921 27.0526 17.0921 27.1503 17.1238L41.5644 21.8113C41.7645 21.8764 41.9 22.063 41.9 22.2734C41.9 22.4839 41.7645 22.6705 41.5644 22.7355L41.5953 22.8306L41.5644 22.7356L40.2113 23.1756ZM27.0309 18.1071L27 18.097L26.9691 18.1071L14.4496 22.1784L14.1572 22.2735L14.4496 22.3686L26.9691 26.4399L27 26.45L27.0309 26.4399L39.5504 22.3686L39.8428 22.2735L39.5504 22.1784L27.0309 18.1071ZM19.4137 25.0049L19.2828 24.9623V25.1V29.3047C19.2828 29.69 19.4997 30.0709 19.8735 30.4201C20.2483 30.7705 20.7911 31.099 21.4696 31.3815C22.8273 31.9468 24.7451 32.3344 27 32.3344C29.2549 32.3344 31.1727 31.9468 32.5304 31.3815C33.2089 31.099 33.7516 30.7705 34.1265 30.4201C34.5003 30.0709 34.7172 29.69 34.7172 29.3047V25.1V24.9623L34.5863 25.0049L27.1504 27.4231C27.1014 27.439 27.0507 27.4469 27 27.4469C26.9492 27.4469 26.8985 27.439 26.8497 27.4231L26.8497 27.4231L19.4137 25.0049Z" fill="#332E4C" stroke="white" stroke-width="0.2"></path>
</svg>