<svg width="17" height="14" viewBox="0 0 17 14" fill="none" xmlns="http://www.w3.org/2000/svg">
<path d="M16.0039 10.0422V3.56733L16.7707 3.31699C16.9074 3.27236 17 3.14436 17 2.99999C17 2.85563 16.9074 2.72766 16.7707 2.68299L8.6027 0.016325C8.53593 -0.00544167 8.46407 -0.00544167 8.3973 0.016325L0.229334 2.68299C0.0926035 2.72766 0 2.85566 0 3.00003C0 3.14439 0.0926035 3.27236 0.229334 3.31703L3.51953 4.39119V7.00003C3.51953 7.676 4.07452 8.28703 5.08227 8.72063C6.00063 9.11576 7.21441 9.33336 8.5 9.33336C9.78559 9.33336 10.9994 9.11576 11.9178 8.72063C12.9255 8.28703 13.4805 7.676 13.4805 7.00003V4.39119L15.3398 3.78416V10.0422C14.7677 10.1906 14.3438 10.7132 14.3438 11.3334V12.06C14.3438 12.5697 14.1372 13.0694 13.7769 13.431C13.682 13.5263 13.6536 13.6697 13.705 13.7942C13.7564 13.9188 13.8774 14 14.0117 14H14.6758C15.9574 14 17 12.9533 17 11.6667V11.3333C17 10.7132 16.5761 10.1906 16.0039 10.0422V10.0422ZM8.5 0.683892L15.5943 3.00003L8.5 5.31616L1.40565 3.00003L8.5 0.683892ZM12.8164 7.00003C12.8164 7.78833 11.0437 8.6667 8.5 8.6667C5.95628 8.6667 4.18359 7.78833 4.18359 7.00003V4.60799L8.3973 5.9837C8.43067 5.9946 8.46534 6.00003 8.5 6.00003C8.53466 6.00003 8.56929 5.99456 8.6027 5.9837L12.8164 4.60799V7.00003Z" fill="white"/>
</svg>
