<svg width="22" height="15" viewBox="0 0 22 15" fill="none" xmlns="http://www.w3.org/2000/svg">
<path d="M20.8722 0H1.12825C0.507686 0 0 0.507686 0 1.12821V13.5387C0 14.1592 0.507686 14.667 1.12825 14.667H20.8722C21.4927 14.667 22.0005 14.1593 22.0005 13.5387V1.12821C22.0004 0.507686 21.4928 0 20.8722 0ZM20.4488 0.846115L11.6492 7.44633C11.491 7.56674 11.2482 7.64206 11.0002 7.64094C10.7522 7.64206 10.5094 7.56674 10.3512 7.44633L1.55159 0.846115H20.4488ZM15.7484 7.88183L20.5433 13.8051C20.5482 13.811 20.554 13.8155 20.5592 13.8209H1.44129C1.44636 13.8152 1.45229 13.811 1.4571 13.8051L6.25208 7.88183C6.39899 7.7002 6.37115 7.43392 6.18917 7.28666C6.00754 7.13975 5.74126 7.16759 5.5943 7.34927L0.846158 13.2147V1.37498L9.84374 8.12319C10.182 8.37508 10.5934 8.48594 11.0001 8.48706C11.4063 8.4862 11.8181 8.37534 12.1565 8.12319L21.1541 1.37498V13.2146L16.4061 7.34927C16.2591 7.16763 15.9926 7.1397 15.8112 7.28666C15.6293 7.43357 15.6014 7.7002 15.7484 7.88183Z" fill="#332E4C"/>
</svg>
