<svg width="24" height="24" viewBox="0 0 24 24" fill="none" xmlns="http://www.w3.org/2000/svg">
<path d="M4.89102 15.9536C7.2582 18.7833 10.1078 21.0112 13.3601 22.5877C14.5984 23.1745 16.2545 23.8707 18.0995 23.9901C18.2139 23.995 18.3233 24 18.4376 24C19.6759 24 20.6706 23.5723 21.4812 22.6921C21.4861 22.6871 21.4961 22.6772 21.5011 22.6672C21.7895 22.3191 22.1177 22.0058 22.4609 21.6726C22.6946 21.4488 22.9333 21.2151 23.1621 20.9764C24.2213 19.8724 24.2213 18.47 23.1521 17.4007L20.1633 14.4119C19.656 13.8848 19.0493 13.6063 18.4128 13.6063C17.7762 13.6063 17.1645 13.8848 16.6424 14.407L14.862 16.1873C14.6979 16.0928 14.5288 16.0083 14.3697 15.9287C14.1708 15.8293 13.9868 15.7348 13.8226 15.6303C12.2014 14.6009 10.7294 13.2582 9.32202 11.5325C8.61088 10.6324 8.13346 9.8765 7.80027 9.10568C8.26773 8.68297 8.70536 8.24037 9.12807 7.80771C9.27727 7.65354 9.43143 7.49938 9.5856 7.34521C10.1227 6.80812 10.4111 6.18649 10.4111 5.55491C10.4111 4.92333 10.1277 4.3017 9.5856 3.76461L8.10362 2.28264C7.92956 2.10858 7.76545 1.93949 7.59637 1.76544C7.26815 1.42727 6.92501 1.07915 6.58684 0.765852C6.07461 0.263572 5.47287 0 4.83632 0C4.20474 0 3.59803 0.263572 3.06591 0.770825L1.20598 2.63075C0.529648 3.30709 0.146722 4.12764 0.0671529 5.0775C-0.0273353 6.26606 0.191479 7.52922 0.758409 9.05595C1.62869 11.4182 2.94158 13.6113 4.89102 15.9536ZM1.28058 5.18193C1.34026 4.52051 1.59388 3.9685 2.0713 3.49109L3.92128 1.64111C4.20971 1.36262 4.52799 1.2184 4.83632 1.2184C5.13968 1.2184 5.44801 1.36262 5.73147 1.65106C6.06467 1.95939 6.37797 2.28264 6.71614 2.62578C6.88522 2.79983 7.05928 2.97389 7.23334 3.15292L8.71531 4.63489C9.02364 4.94322 9.18278 5.25653 9.18278 5.56486C9.18278 5.87319 9.02364 6.18649 8.71531 6.49482C8.56114 6.64898 8.40698 6.80812 8.25281 6.96229C7.79032 7.42976 7.35766 7.87236 6.88025 8.29507C6.8703 8.30501 6.86533 8.30999 6.85538 8.31993C6.44262 8.7327 6.50727 9.12557 6.60673 9.42395C6.6117 9.43887 6.61668 9.44882 6.62165 9.46374C7.00458 10.3838 7.53669 11.259 8.3672 12.3034C9.85911 14.1434 11.4306 15.5707 13.1612 16.6697C13.3751 16.809 13.6038 16.9184 13.8177 17.0278C14.0166 17.1272 14.2006 17.2217 14.3647 17.3261C14.3846 17.3361 14.3995 17.346 14.4194 17.356C14.5835 17.4405 14.7427 17.4803 14.9018 17.4803C15.2996 17.4803 15.5582 17.2267 15.6428 17.1421L17.5027 15.2822C17.7911 14.9938 18.1045 14.8396 18.4128 14.8396C18.7907 14.8396 19.0991 15.0734 19.293 15.2822L22.2918 18.276C22.8885 18.8728 22.8836 19.5193 22.2769 20.1509C22.068 20.3746 21.8492 20.5885 21.6154 20.8123C21.2673 21.1504 20.9043 21.4986 20.5761 21.8914C20.0042 22.5081 19.3229 22.7965 18.4426 22.7965C18.3581 22.7965 18.2686 22.7915 18.184 22.7866C16.5529 22.6821 15.0361 22.0456 13.8972 21.5035C10.804 20.0066 8.0887 17.8831 5.83591 15.1877C3.98095 12.9548 2.73271 10.8761 1.90719 8.64816C1.39496 7.28056 1.20101 6.18152 1.28058 5.18193Z" fill="#332E4C"/>
</svg>
