<svg width="8" height="11" viewBox="0 0 8 11" fill="none" xmlns="http://www.w3.org/2000/svg">
<path d="M3.54062 6.752C3.54062 6.248 3.65262 5.83267 3.87662 5.506C4.10995 5.17 4.44595 4.806 4.88462 4.414C5.22062 4.11533 5.46795 3.85867 5.62662 3.644C5.79462 3.42 5.87862 3.168 5.87862 2.888C5.87862 2.496 5.71995 2.17867 5.40262 1.936C5.08528 1.69333 4.66062 1.572 4.12862 1.572C3.12062 1.572 2.35995 1.93133 1.84662 2.65L0.488617 1.768C0.889951 1.21733 1.40795 0.797333 2.04262 0.508C2.67728 0.209333 3.42395 0.0599995 4.28262 0.0599995C5.32795 0.0599995 6.15862 0.288666 6.77462 0.746C7.39995 1.194 7.71262 1.81467 7.71262 2.608C7.71262 2.99067 7.64728 3.32667 7.51662 3.616C7.39528 3.90533 7.24595 4.15267 7.06862 4.358C6.89128 4.554 6.65795 4.78267 6.36862 5.044C6.01395 5.36133 5.74795 5.64133 5.57062 5.884C5.40262 6.12667 5.31862 6.416 5.31862 6.752H3.54062ZM4.43662 10.098C4.10995 10.098 3.83928 9.99533 3.62462 9.79C3.41928 9.57533 3.31662 9.314 3.31662 9.006C3.31662 8.698 3.41928 8.44133 3.62462 8.236C3.83928 8.03067 4.10995 7.928 4.43662 7.928C4.75395 7.928 5.01528 8.03067 5.22062 8.236C5.43528 8.44133 5.54262 8.698 5.54262 9.006C5.54262 9.314 5.43528 9.57533 5.22062 9.79C5.01528 9.99533 4.75395 10.098 4.43662 10.098Z" fill="#1F1F1F"/>
</svg>
