<svg width="970" height="314" viewBox="0 0 970 314" fill="none" xmlns="http://www.w3.org/2000/svg">
<path d="M113.287 243.363C204.162 286.964 304.353 245.799 372.415 203.659C407.396 181.981 441.427 156.161 474.508 131.316C517.094 99.1635 561.391 65.7931 607.779 40.9479C653.027 16.8335 768.047 -31.3953 856.831 43.8709C907.783 87.2281 943.334 167.122 962.346 281.361C964.057 292.079 965.768 303.04 967.289 314.001H969.19C967.669 303.04 965.958 291.835 964.247 280.874C945.235 165.904 909.494 85.523 857.972 41.9222C768.427 -34.0747 652.837 14.3977 607.209 38.7557C560.63 63.6008 516.523 96.9713 473.747 129.124C440.857 153.969 406.826 179.788 371.845 201.467C304.163 243.363 204.542 284.284 114.237 241.17C81.9174 225.581 52.4494 200.249 24.1221 175.648C12.3349 165.417 0.357558 154.943 -12 145.2V148.123C-0.0226746 157.623 11.5744 167.609 22.9814 177.596C51.4988 202.441 80.9669 227.774 113.287 243.363Z" fill="white" fill-opacity="0.08"/>
</svg>
