<svg width="41" height="38" viewBox="0 0 41 38" fill="none" xmlns="http://www.w3.org/2000/svg">
<path d="M40.7067 23.7831C37.8503 21.6306 35.8515 18.3463 34.7618 14.0191C33.1563 7.65036 29.9195 4.18119 27.4887 2.39853C24.8386 0.453133 22.5819 0.0241097 22.4852 0.00931582C22.2788 -0.0276689 22.0725 0.0463007 21.9307 0.21643L16.8046 6.097C16.7788 6.0896 16.7595 6.0896 16.7595 6.0896L16.7466 6.16357L10.7179 13.0797C10.705 13.0797 10.705 13.0797 10.6985 13.0871L0.188599 25.1441C-0.0628663 25.4326 -0.0628663 25.8986 0.188599 26.1871C0.440064 26.4756 0.846277 26.4756 1.09774 26.1871L11.3691 14.4112C12.9101 14.8328 19.7577 17.2368 22.2982 27.2966C23.4781 31.9641 25.651 35.5294 28.7589 37.8816C28.8685 37.963 28.991 38 29.1135 38C29.2812 38 29.4424 37.926 29.5713 37.7855L40.8099 24.9222C40.9453 24.7669 41.0162 24.545 40.9969 24.3231C40.9775 24.1012 40.8679 23.9014 40.7067 23.7831ZM35.0713 18.8123L30.4482 24.1159C29.8744 22.8954 29.3908 21.564 29.0233 20.0994C28.7589 19.0638 28.4558 18.1096 28.1141 17.2146L32.7372 11.911C33.0274 12.6951 33.2853 13.5309 33.5109 14.4333C33.9236 16.0237 34.4394 17.4809 35.0713 18.8123ZM32.1633 10.4834L27.5274 15.8018C26.4764 13.5087 25.1997 11.7483 23.8908 10.3946L28.5074 5.09841C29.8163 6.38548 31.1123 8.13855 32.1633 10.4834ZM22.5948 1.53309C23.3556 1.7328 25.348 2.38373 27.4951 4.159L22.9043 9.42562C21.1311 7.85747 19.4031 6.99203 18.236 6.53342L22.5948 1.53309ZM12.4266 13.2055L17.2044 7.72432C18.1522 8.0276 20.0221 8.78209 21.9887 10.4834L17.1851 15.9941C16.8691 15.7278 16.5596 15.4837 16.2695 15.2618C14.7413 14.1449 13.3486 13.5309 12.4266 13.2055ZM18.1909 16.9261L22.9881 11.4228C24.2841 12.7542 25.5543 14.5369 26.5731 16.8965L21.892 22.2667C20.7829 19.9515 19.4676 18.2132 18.1909 16.9261ZM22.4981 23.6573L27.134 18.3389C27.3726 19.0195 27.5918 19.737 27.7853 20.5062C28.2173 22.2297 28.7911 23.7979 29.4939 25.2107L24.8128 30.5809C24.3034 29.4491 23.8714 28.2212 23.5362 26.8824C23.246 25.7137 22.8914 24.6411 22.4981 23.6573ZM29.0426 36.3061C27.6241 35.1374 26.4377 33.6654 25.477 31.9197L30.1968 26.5052C31.2026 28.1917 32.4277 29.6267 33.8656 30.788L29.0426 36.3061ZM34.7941 29.7154C33.3433 28.5837 32.1247 27.1487 31.1317 25.4252L35.7548 20.1216C36.7413 21.8451 37.9341 23.3097 39.3462 24.5006L34.7941 29.7154Z" fill="white"/>
</svg>
