<svg width="55" height="55" viewBox="0 0 55 55" fill="none" xmlns="http://www.w3.org/2000/svg">
<circle cx="27.5" cy="27.5" r="27.5" fill="white"/>
<circle cx="27.5" cy="27.5" r="21" stroke="#332E4C" stroke-dasharray="3 3"/>
<g clip-path="url(#clip0_3902_3639)">
<path d="M20.4217 29.8271C20.4746 29.8271 20.5271 29.817 20.5764 29.7975L22.6617 28.9634C22.8001 28.9081 22.8986 28.7832 22.9198 28.6356C22.9412 28.4881 22.8822 28.3405 22.7652 28.2483C22.6481 28.1559 22.4906 28.1332 22.3522 28.1885L20.2669 29.0226C20.0811 29.0967 19.974 29.2924 20.0118 29.4888C20.0496 29.6853 20.2216 29.8273 20.4217 29.8271Z" fill="#332E4C"/>
<path d="M22.6934 33.2067L20.1911 31.9556C20.0576 31.889 19.899 31.8985 19.7745 31.9808C19.6502 32.0629 19.5792 32.2051 19.5882 32.3541C19.5971 32.5028 19.6848 32.6355 19.8182 32.7021L22.3205 33.9533C22.454 34.02 22.6126 34.0102 22.7371 33.9281C22.8614 33.8458 22.9324 33.7036 22.9234 33.5549C22.9144 33.406 22.8268 33.2733 22.6934 33.2067Z" fill="#332E4C"/>
<path d="M27.3571 28.9634L29.4423 29.7975C29.5807 29.8527 29.7382 29.83 29.8552 29.7378C29.9722 29.6456 30.0312 29.4978 30.0098 29.3502C29.9887 29.2028 29.8901 29.0778 29.7517 29.0226L27.6664 28.1885C27.528 28.1332 27.3707 28.1559 27.2536 28.2483C27.1364 28.3405 27.0774 28.4881 27.0988 28.6356C27.1202 28.7832 27.2185 28.9081 27.3571 28.9634Z" fill="#332E4C"/>
<path d="M29.8276 31.9562L27.3253 33.2073C27.1191 33.3104 27.0355 33.5608 27.1384 33.767C27.2413 33.9732 27.492 34.0568 27.698 33.9539L30.2004 32.7027C30.4064 32.5998 30.4902 32.3491 30.3872 32.1429C30.2842 31.9369 30.0338 31.8531 29.8276 31.9562Z" fill="#332E4C"/>
<path d="M28.4292 14.8603C27.3066 15.3246 26.2809 15.9943 25.4044 16.8354C25.3376 16.8962 25.2692 16.9689 25.1995 17.0439C25.1682 17.0777 25.1365 17.1119 25.1041 17.1457C25.0794 17.1457 25.0556 17.138 25.0306 17.138C24.4773 17.1379 23.9781 17.4706 23.7654 17.9815C23.5525 18.4924 23.668 19.081 24.0581 19.4737L23.8496 19.6821L23.6384 19.4712C23.101 18.9481 22.2429 18.9538 21.7125 19.4842C21.1821 20.0143 21.1762 20.8725 21.6991 21.4101L21.9107 21.6211L21.6991 21.832C21.1636 22.3675 21.1636 23.2358 21.6991 23.7715C22.2346 24.307 23.1029 24.307 23.6384 23.7715L23.8496 23.5604L24.0472 23.7581C23.711 24.1024 23.5812 24.5983 23.7058 25.0632C23.8305 25.5279 24.1911 25.8925 24.6545 26.0222L24.6461 26.4935C19.2085 26.5861 15 28.723 15 31.4365C15 31.4632 15.0032 31.4899 15.0042 31.5165C15.0042 31.5237 15 31.5294 15 31.5365V33.9556C15.0023 33.9726 15.0057 33.9894 15.0099 34.006C15.2215 36.7339 19.7127 39.0018 25.0094 39.0018C30.3059 39.0018 34.7973 36.7339 35.0086 34.006C35.013 33.9894 35.0165 33.9726 35.0188 33.9556V31.5365C35.0188 31.5294 35.0149 31.5237 35.0146 31.5165C35.0146 31.4899 35.0188 31.4632 35.0188 31.4365C35.0188 28.7423 30.866 26.6153 25.4802 26.496L25.4893 25.9956C25.929 25.8416 26.2595 25.4737 26.3656 25.0201C26.4718 24.5667 26.3387 24.0903 26.0132 23.7572L26.2108 23.5596L26.4223 23.7706C26.9599 24.2937 27.8179 24.2875 28.3483 23.7572C28.8786 23.2268 28.8843 22.3687 28.3612 21.8313L28.1503 21.6203L28.3612 21.4091C28.8966 20.8738 28.8966 20.0057 28.3612 19.4702C27.8257 18.9349 26.9576 18.9349 26.4223 19.4702L26.2108 19.6814L26.0023 19.4729C26.4464 19.0311 26.5296 18.3425 26.2033 17.808C27.5701 17.4634 29.808 17.144 31.3962 18.1537C32.8112 19.0504 32.8746 20.4691 32.9479 22.1123C32.963 22.6951 33.0115 23.2767 33.0936 23.854C33.4326 25.9113 34.2037 27.2041 35.4491 27.8061C35.8824 28.0281 36.3609 28.1488 36.8479 28.1585C37.4808 28.1581 38.0898 27.916 38.5503 27.4819C39.0039 27.0562 39.3313 26.5134 39.4962 25.9134C40.3374 23.1713 40.3387 19.3102 37.8217 16.6965C35.1217 13.891 32.2244 13.3246 28.4292 14.8603ZM25.0306 17.9723C25.2478 17.9723 25.4439 18.1031 25.5269 18.3039C25.61 18.5048 25.564 18.7358 25.4103 18.8895C25.2566 19.043 25.0254 19.0888 24.8248 19.0056C24.6241 18.9223 24.4933 18.7262 24.4935 18.509C24.4937 18.2125 24.7341 17.9723 25.0306 17.9723ZM22.2892 20.8211C22.1529 20.6856 22.0997 20.4874 22.1493 20.3017C22.1989 20.1159 22.344 19.9708 22.5298 19.9214C22.7156 19.8717 22.9137 19.9254 23.0491 20.0617L23.2602 20.2726L22.5008 21.0321L22.2892 20.8211ZM23.8496 20.8629L24.6094 21.6224L23.8496 22.3822L23.0909 21.6218L23.8496 20.8629ZM23.0491 23.1825C22.8368 23.3855 22.5021 23.3855 22.2896 23.1825C22.0802 22.9729 22.0802 22.6331 22.2896 22.4235L22.5008 22.2121L23.2602 22.972L23.0491 23.1825ZM25.0094 32.2326L22.3139 31.0777L25.0094 29.9218L27.7047 31.0777L25.0094 32.2326ZM34.1847 33.8053C34.1847 35.8685 30.4164 38.1677 25.0094 38.1677C19.6021 38.1677 15.8341 35.8685 15.8341 33.8053V33.4571C17.3797 35.2459 20.9097 36.4995 25.0094 36.4995C29.109 36.4995 32.639 35.2459 34.1847 33.455V33.8053ZM34.1847 31.4365C34.1847 33.6894 29.8973 35.6654 25.0094 35.6654C20.1214 35.6654 15.8341 33.6894 15.8341 31.4365C15.8341 29.2641 19.8249 27.4216 24.6306 27.329L24.5972 29.1911L21.0911 30.6946C20.9378 30.7603 20.8385 30.9111 20.8385 31.0777C20.8385 31.2446 20.9378 31.3954 21.0911 31.4611L24.8446 33.0709C24.8503 33.0734 24.8563 33.0709 24.8622 33.0743C24.909 33.0934 24.9588 33.1037 25.0094 33.1047C25.0598 33.1037 25.1094 33.0934 25.1562 33.0747C25.1619 33.0722 25.1682 33.0747 25.1741 33.0709L28.9275 31.4611C29.0808 31.3954 29.1803 31.2446 29.1803 31.0777C29.1803 30.9111 29.0808 30.7603 28.9275 30.6946L25.4315 29.1931L25.4651 27.3276C30.2368 27.4403 34.1847 29.2757 34.1847 31.4365ZM25.0306 25.2478C24.8133 25.248 24.6172 25.1171 24.534 24.9164C24.4508 24.7156 24.4966 24.4844 24.6503 24.3307C24.804 24.1772 25.0352 24.1312 25.236 24.2144C25.4366 24.2977 25.5676 24.4937 25.5674 24.711C25.5668 25.0073 25.3269 25.2473 25.0306 25.2478ZM25.4101 23.1825C25.1974 23.3851 24.8633 23.3851 24.6507 23.1825L24.4397 22.9716L25.0306 22.3805L25.6213 22.971L25.4101 23.1825ZM25.4519 21.6218L26.2114 20.8624L26.9695 21.6218L26.2096 22.3813L25.4519 21.6218ZM27.7719 22.4231C27.9815 22.6329 27.9815 22.9727 27.7719 23.1825C27.5592 23.3851 27.2251 23.3851 27.0124 23.1825L26.8011 22.9716L27.5609 22.2116L27.7719 22.4231ZM27.0113 20.0617C27.2222 19.8603 27.5556 19.8643 27.7618 20.0705C27.9681 20.2768 27.972 20.61 27.7707 20.8211L27.5596 21.0321L26.8026 20.2726L27.0113 20.0617ZM25.0298 20.8637L24.4387 20.2726L24.6499 20.0617C24.8595 19.8521 25.1995 19.8521 25.4093 20.0617L25.6203 20.2726L25.0298 20.8637ZM38.6975 25.6682C38.5751 26.1234 38.3298 26.5363 37.9886 26.8614C37.3817 27.3918 36.5023 27.4708 35.8107 27.0569C34.8265 26.5816 34.2062 25.4901 33.9139 23.7205C33.8378 23.1755 33.7927 22.6266 33.7788 22.0766C33.702 20.3574 33.6224 18.5794 31.8406 17.4506C30.8859 16.8879 29.7908 16.6084 28.6831 16.6443C28.0025 16.6489 27.3236 16.7186 26.6564 16.8528C27.2908 16.3503 27.9928 15.9393 28.7415 15.6321C32.2244 14.2255 34.758 14.7163 37.2207 17.2732C39.4896 19.6293 39.435 23.2671 38.6984 25.6682H38.6975Z" fill="#332E4C"/>
</g>
<defs>
<clipPath id="clip0_3902_3639">
<rect width="25" height="25" fill="white" transform="translate(15 14)"/>
</clipPath>
</defs>
</svg>
