<svg width="38" height="38" viewBox="0 0 38 38" fill="none" xmlns="http://www.w3.org/2000/svg">
<circle cx="19" cy="19" r="19" fill="#1F1F1F"/>
<circle cx="18.9991" cy="19.0001" r="14.3545" stroke="white" stroke-dasharray="3 3"/>
<path d="M20.7005 17.2256C20.5412 17.2256 20.4121 17.3479 20.4121 17.4987V22.6609C20.4121 22.8116 20.5412 22.934 20.7005 22.934C20.8597 22.934 20.9888 22.8116 20.9888 22.6609V17.4987C20.9888 17.3479 20.8597 17.2256 20.7005 17.2256Z" fill="white"/>
<path d="M17.2981 17.2256C17.1388 17.2256 17.0098 17.3479 17.0098 17.4987V22.6609C17.0098 22.8116 17.1388 22.934 17.2981 22.934C17.4574 22.934 17.5865 22.8116 17.5865 22.6609V17.4987C17.5865 17.3479 17.4574 17.2256 17.2981 17.2256Z" fill="white"/>
<path d="M14.819 16.4721V23.2014C14.819 23.5992 14.9729 23.9727 15.2419 24.2407C15.5096 24.5094 15.8822 24.662 16.2722 24.6627H21.7278C22.1179 24.662 22.4905 24.5094 22.7581 24.2407C23.0271 23.9727 23.181 23.5992 23.181 23.2014V16.4721C23.7157 16.3377 24.0622 15.8484 23.9907 15.3287C23.919 14.8091 23.4517 14.4204 22.8984 14.4203H21.4221V14.0789C21.4238 13.7918 21.304 13.5161 21.0894 13.3133C20.8748 13.1106 20.5833 12.9977 20.2802 13H17.7198C17.4167 12.9977 17.1252 13.1106 16.9106 13.3133C16.696 13.5161 16.5762 13.7918 16.5779 14.0789V14.4203H15.1016C14.5483 14.4204 14.081 14.8091 14.0093 15.3287C13.9378 15.8484 14.2843 16.3377 14.819 16.4721ZM21.7278 24.1164H16.2722C15.7792 24.1164 15.3957 23.7152 15.3957 23.2014V16.4961H22.6044V23.2014C22.6044 23.7152 22.2208 24.1164 21.7278 24.1164ZM17.1546 14.0789C17.1527 13.9367 17.2117 13.7998 17.3182 13.6994C17.4247 13.599 17.5695 13.5438 17.7198 13.5463H20.2802C20.4305 13.5438 20.5753 13.599 20.6818 13.6994C20.7883 13.7997 20.8473 13.9367 20.8454 14.0789V14.4203H17.1546V14.0789ZM15.1016 14.9666H22.8984C23.1851 14.9666 23.4175 15.1867 23.4175 15.4582C23.4175 15.7297 23.1851 15.9498 22.8984 15.9498H15.1016C14.8149 15.9498 14.5825 15.7297 14.5825 15.4582C14.5825 15.1867 14.8149 14.9666 15.1016 14.9666Z" fill="white"/>
<path d="M18.9993 17.2256C18.84 17.2256 18.7109 17.3479 18.7109 17.4987V22.6609C18.7109 22.8116 18.84 22.934 18.9993 22.934C19.1586 22.934 19.2876 22.8116 19.2876 22.6609V17.4987C19.2876 17.3479 19.1586 17.2256 18.9993 17.2256Z" fill="white"/>
</svg>
