<svg width="18" height="18" viewBox="0 0 18 18" fill="none" xmlns="http://www.w3.org/2000/svg">
<path d="M16.9138 5.51908C17.2255 5.28637 17.1888 4.80121 16.9138 4.52619L13.5939 1.20627C13.3189 0.931244 12.8761 0.931244 12.601 1.20627L7.21675 6.58122L1.83968 11.9489C1.56221 13.6703 1.27748 15.3989 1 17.1202L6.15184 16.2611C8.93698 13.476 10.2531 12.1648 11.5815 10.8414C12.9099 9.51805 14.2163 8.21658 16.9138 5.51908V5.51908Z" stroke="black" stroke-opacity="0.21" stroke-miterlimit="6.2" stroke-linecap="round" stroke-linejoin="round"/>
<path d="M15.2506 7.18449L15.3092 7.12591C15.4911 6.94392 15.4911 6.64886 15.3092 6.46687L11.6039 2.76161C11.422 2.57962 11.1269 2.57962 10.9449 2.76161L10.8863 2.82019C10.7043 3.00218 10.7043 3.29724 10.8863 3.47923L14.5915 7.18449C14.7735 7.36648 15.0686 7.36648 15.2506 7.18449Z" fill="black" fill-opacity="0.21"/>
<path d="M4.07872 17.0448L1.117 14.083L1 17.1203L4.07872 17.0448Z" fill="black" fill-opacity="0.21"/>
<path d="M6.55331 15.8271L6.61189 15.7685C6.79388 15.5865 6.79388 15.2914 6.61189 15.1094L2.90668 11.4042C2.72469 11.2222 2.42963 11.2222 2.24765 11.4042L2.18907 11.4628C2.00708 11.6448 2.00708 11.9398 2.18907 12.1218L5.89428 15.8271C6.07627 16.0091 6.37132 16.0091 6.55331 15.8271Z" fill="black" fill-opacity="0.21"/>
</svg>
