<svg width="179" height="35" viewBox="0 0 179 35" fill="none" xmlns="http://www.w3.org/2000/svg">
<rect x="92" y="17.4141" width="2" height="2" transform="rotate(-45 92 17.4141)" fill="#1F1F1F"/>
<rect x="97" y="17.4141" width="2" height="2" transform="rotate(-45 97 17.4141)" fill="#1F1F1F"/>
<path d="M126.177 17.1768C126.274 17.0791 126.274 16.9209 126.177 16.8232L124.586 15.2322C124.488 15.1346 124.33 15.1346 124.232 15.2322C124.135 15.3299 124.135 15.4882 124.232 15.5858L125.646 17L124.232 18.4142C124.135 18.5118 124.135 18.6701 124.232 18.7678C124.33 18.8654 124.488 18.8654 124.586 18.7678L126.177 17.1768ZM105 17.25H126V16.75H105V17.25Z" fill="#1F1F1F"/>
</svg>
