<svg width="432" height="1414" viewBox="0 0 432 1414" fill="none" xmlns="http://www.w3.org/2000/svg">
<path d="M-256.408 152.395C-256.503 162.866 -256.315 173.302 -256.38 183.997C-256.588 305.674 -256.562 431.413 -173.784 527.205C-124.452 584.314 -50.0117 624.102 21.6514 662.428C80.9597 694.154 142.422 726.968 190.482 769.687C286.038 855.199 321.131 976.21 340.609 1071.94C345.748 1096.29 350.096 1121.2 354.611 1145.18C370.049 1229.6 385.803 1316.49 425.011 1395.59C426.631 1399.25 428.534 1402.87 430.409 1406.26L431.385 1413.87C428.374 1408.35 425.335 1402.6 422.267 1396.62C383.03 1317.3 366.936 1230 351.81 1145.77C347.577 1121.75 342.947 1096.88 337.807 1072.53C318.075 977.057 283.322 856.457 188.107 771.356C140.641 728.788 79.1795 695.974 19.8999 664.472C-52.0749 625.959 -126.798 586.206 -176.187 528.65C-259.335 432.224 -259.389 306.261 -259.239 184.137C-259.174 173.441 -259.362 163.006 -259.267 152.534C-259.41 104.347 -262.391 51.977 -273.523 1.10749L-270.692 0.744262C-259.278 51.5775 -256.551 104.208 -256.408 152.395Z" fill="white" fill-opacity="0.2"/>
</svg>
