<svg width="23" height="21" viewBox="0 0 23 21" fill="none" xmlns="http://www.w3.org/2000/svg">
<path fill-rule="evenodd" clip-rule="evenodd" d="M0.599609 1.19351C0.599609 0.921069 0.82046 0.700211 1.09291 0.700211H4.05272C4.27615 0.698305 4.48943 0.867569 4.53832 1.0856L4.97765 3.16672L5.18578 4.15332L6.54236 10.5662H19.6919L21.1949 4.15332C21.1949 4.15332 21.275 3.60534 21.3954 3.41269C21.5158 3.22005 21.8115 3.16672 21.8115 3.16672C22.1049 3.16881 22.3536 3.48163 22.2894 3.76793L20.5629 11.1675C20.5146 11.383 20.3059 11.5504 20.085 11.5528H6.75045L7.16668 13.526H19.0984C19.359 13.5224 19.5987 13.7587 19.5987 14.0193C19.5987 14.28 19.359 14.5163 19.0984 14.5127H6.76587C6.48392 14.5268 6.22295 14.2542 6.24943 13.9731L3.65191 1.68681H1.09291C0.82046 1.68681 0.599609 1.46595 0.599609 1.19351ZM7.25917 18.2124C7.25917 16.9922 8.25889 15.9925 9.47902 15.9925C10.6992 15.9925 11.6989 16.9922 11.6989 18.2124C11.6989 19.4325 10.6992 20.4322 9.47902 20.4322C8.25889 20.4322 7.25917 19.4325 7.25917 18.2124ZM14.1654 18.2124C14.1654 16.9922 15.1651 15.9925 16.3852 15.9925C17.6054 15.9925 18.6051 16.9922 18.6051 18.2124C18.6051 19.4325 17.6054 20.4322 16.3852 20.4322C15.1651 20.4322 14.1654 19.4325 14.1654 18.2124ZM10.7123 18.2124C10.7123 17.5254 10.166 16.9791 9.47902 16.9791C8.7921 16.9791 8.24577 17.5254 8.24577 18.2124C8.24577 18.8993 8.7921 19.4456 9.47902 19.4456C10.166 19.4456 10.7123 18.8993 10.7123 18.2124ZM17.6185 18.2124C17.6185 17.5254 17.0722 16.9791 16.3852 16.9791C15.6983 16.9791 15.152 17.5254 15.152 18.2124C15.152 18.8993 15.6983 19.4456 16.3852 19.4456C17.0722 19.4456 17.6185 18.8993 17.6185 18.2124Z" fill="white"/>
</svg>
