<svg width="16" height="21" viewBox="0 0 16 21" fill="none" xmlns="http://www.w3.org/2000/svg">
<path d="M0.173708 18.8573C0.326458 18.9448 3.96146 21 8 21C12.3753 21 15.6988 18.9379 15.8382 18.8502C15.8875 18.8191 15.9284 18.7751 15.9567 18.7225C15.9851 18.6699 16 18.6105 16 18.5501C16 15.7242 15.1747 13.1383 13.6762 11.2684C12.628 9.96033 11.3127 9.06872 9.86208 8.65827C10.7501 8.21457 11.4679 7.46694 11.8977 6.53821C12.3274 5.60948 12.4435 4.55489 12.2269 3.5477C12.0103 2.54051 11.4739 1.64064 10.7057 0.995924C9.93756 0.351209 8.9834 0 8 0C7.0166 0 6.06244 0.351209 5.2943 0.995924C4.52615 1.64064 3.9897 2.54051 3.77309 3.5477C3.55648 4.55489 3.67259 5.60948 4.10235 6.53821C4.5321 7.46694 5.24994 8.21457 6.13792 8.65827C4.68729 9.06872 3.37204 9.96046 2.32379 11.2684C0.825292 13.1383 0 15.7242 0 18.5501C4.84943e-07 18.6129 0.016132 18.6747 0.0466989 18.7287C0.0772658 18.7828 0.121139 18.8272 0.173708 18.8573ZM4.33333 4.55043C4.33333 3.78899 4.54838 3.04465 4.95128 2.41154C5.35418 1.77843 5.92683 1.28497 6.59683 0.993584C7.26682 0.702194 8.00407 0.625954 8.71533 0.774503C9.42659 0.923052 10.0799 1.28972 10.5927 1.82814C11.1055 2.36656 11.4547 3.05254 11.5962 3.79935C11.7377 4.54616 11.6651 5.32024 11.3876 6.02372C11.11 6.7272 10.6401 7.32847 10.0371 7.7515C9.43411 8.17453 8.7252 8.40033 8 8.40033C7.02788 8.39917 6.09589 7.99319 5.40849 7.27144C4.7211 6.54969 4.33444 5.57113 4.33333 4.55043ZM2.83388 11.7191C4.1875 10.0303 6.022 9.10031 8 9.10031C9.978 9.10031 11.8125 10.0303 13.1661 11.7191C14.5278 13.4182 15.2935 15.765 15.3318 18.3459C14.6185 18.7513 11.6545 20.3 8 20.3C4.62042 20.3 1.4375 18.7422 0.668333 18.3376C0.708333 15.7599 1.47363 13.4164 2.83388 11.7191Z" fill="white"/>
</svg>
