<svg width="18" height="11" viewBox="0 0 18 11" fill="none" xmlns="http://www.w3.org/2000/svg">
<path d="M17.7781 5.11091C15.9215 1.96937 12.5507 0 8.9177 0C5.28473 0 1.91022 1.96937 0.0573339 5.11091C-0.0191113 5.22376 -0.0191113 5.37665 0.0573339 5.48949C1.91386 8.63103 5.28473 10.6004 8.9177 10.6004C12.5507 10.6004 15.9252 8.63103 17.7781 5.48949C17.8545 5.37665 17.8545 5.22376 17.7781 5.11091ZM8.9177 9.84323C5.62327 9.84323 2.55454 8.10319 0.850908 5.3002C2.55454 2.49721 5.62327 0.757171 8.9177 0.757171C12.2121 0.757171 15.2809 2.49721 16.9845 5.3002C15.2809 8.10319 12.2121 9.84323 8.9177 9.84323Z" fill="black"/>
<path d="M8.91704 1.89258C7.02411 1.89258 5.50977 3.40692 5.50977 5.29985C5.50977 7.19278 7.02411 8.70712 8.91704 8.70712C10.81 8.70712 12.3243 7.19278 12.3243 5.29985C12.3243 3.40692 10.81 1.89258 8.91704 1.89258ZM8.91704 7.94995C7.4391 7.94995 6.26694 6.77415 6.26694 5.29985C6.26694 3.82555 7.44274 2.64975 8.91704 2.64975C10.3913 2.64975 11.5671 3.82555 11.5671 5.29985C11.5671 6.77415 10.395 7.94995 8.91704 7.94995Z" fill="black"/>
<path d="M8.91669 3.78564V4.54282C9.33168 4.54282 9.67386 4.885 9.67386 5.29999C9.67386 5.71498 9.33168 6.05716 8.91669 6.05716C8.5017 6.05716 8.15952 5.71498 8.15952 5.29999H7.40234C7.40234 6.1336 8.08307 6.81433 8.91669 6.81433C9.7503 6.81433 10.431 6.1336 10.431 5.29999C10.431 4.46637 9.7503 3.78564 8.91669 3.78564Z" fill="black"/>
</svg>
