<svg width="20" height="13" viewBox="0 0 20 13" fill="none" xmlns="http://www.w3.org/2000/svg">
<path d="M19.8612 6.11091C17.8626 2.96937 14.2338 1 10.3228 1C6.4118 1 2.77906 2.96937 0.784378 6.11091C0.702082 6.22376 0.702082 6.37665 0.784378 6.4895C2.78297 9.63103 6.4118 11.6004 10.3228 11.6004C14.2338 11.6004 17.8665 9.63103 19.8612 6.4895C19.9435 6.37665 19.9435 6.22376 19.8612 6.11091V6.11091ZM10.3228 10.8432C6.77625 10.8432 3.47269 9.10319 1.63868 6.3002C3.47269 3.49721 6.77625 1.75717 10.3228 1.75717C13.8693 1.75717 17.1729 3.49721 19.0069 6.3002C17.1729 9.10319 13.8693 10.8432 10.3228 10.8432Z" fill="black" fill-opacity="0.25"/>
<path d="M10.3223 2.89258C8.28452 2.89258 6.6543 4.40692 6.6543 6.29985C6.6543 8.19278 8.28452 9.70712 10.3223 9.70712C12.3601 9.70712 13.9903 8.19278 13.9903 6.29985C13.9903 4.40692 12.3601 2.89258 10.3223 2.89258ZM10.3223 8.94995C8.73127 8.94995 7.46941 7.77415 7.46941 6.29985C7.46941 4.82555 8.73519 3.64975 10.3223 3.64975C11.9094 3.64975 13.1752 4.82555 13.1752 6.29985C13.1752 7.77415 11.9133 8.94995 10.3223 8.94995Z" fill="black" fill-opacity="0.25"/>
<path d="M10.3216 4.78564V5.54282C10.7684 5.54282 11.1367 5.885 11.1367 6.29999C11.1367 6.71498 10.7684 7.05716 10.3216 7.05716C9.87489 7.05716 9.50652 6.71498 9.50652 6.29999H8.69141C8.69141 7.1336 9.42423 7.81433 10.3216 7.81433C11.219 7.81433 11.9519 7.1336 11.9519 6.29999C11.9519 5.46637 11.219 4.78564 10.3216 4.78564V4.78564Z" fill="black" fill-opacity="0.25"/>
<line y1="-0.5" x2="17.6319" y2="-0.5" transform="matrix(-0.732668 0.680586 -0.732668 -0.680586 16.8711 0)" stroke="#BFBFBF"/>
</svg>
